<svg viewBox="0 0 147 147" xmlns="http://www.w3.org/2000/svg" xml:space="preserve" style="fill-rule:evenodd;clip-rule:evenodd;stroke-linecap:round;stroke-miterlimit:1.5"><g opacity=".1"><path d="m73.092 23.082 5.562 11.123H67.531l5.561-11.123ZM67.531 34.205h11.123v38.888H67.531zM104.732 91.36l-9.818.753 5.562-9.633 4.256 8.88Z"/><path d="M94.914 92.113 70.312 77.909l5.561-9.633 24.603 14.204-5.562 9.633Z"/><path d="m67.531 73.092 2.781 4.817 2.78-4.817h-5.561Z"/></g><circle cx="73.092" cy="73.092" r="62.276" style="fill:none;stroke:#000;stroke-opacity:.1;stroke-width:12px"/><path d="M121.58 112.158c-11.42 14.152-28.904 23.21-48.488 23.21-34.37 0-62.275-27.905-62.275-62.276 0-34.37 27.905-62.275 62.275-62.275 15.746 0 30.134 5.856 41.105 15.506" style="fill:none;stroke:#000;stroke-width:12px;stroke-linecap:butt"/><path d="M127.912 43.181 104.487 32.43l17.971-14.439 5.454 25.19Z"/></svg>