<?xml version="1.0" encoding="UTF-8" standalone="no"?>
<!DOCTYPE svg PUBLIC "-//W3C//DTD SVG 1.1//EN" "http://www.w3.org/Graphics/SVG/1.1/DTD/svg11.dtd">
<svg width="100%" height="100%" viewBox="0 0 1080 3840" version="1.1" xmlns="http://www.w3.org/2000/svg" xmlns:xlink="http://www.w3.org/1999/xlink" xml:space="preserve" xmlns:serif="http://www.serif.com/" style="fill-rule:evenodd;clip-rule:evenodd;stroke-linejoin:round;stroke-miterlimit:1.5;">
    <g>
        <path d="M-0,0L1080,0L1080,3840L-0,3840L-0,0Z" style="fill:#fff7ef;"/>
        <g id="Grid-Lines" serif:id="Grid Lines">
            <g id="Horizontal">
                <path id="Bottom" d="M50,3747.91L1030,3747.91" style="fill:none;"/>
                <clipPath id="_clip1">
                    <path d="M50,3747.91L1030,3747.91"/>
                </clipPath>
                <g clip-path="url(#_clip1)">
                    <path id="Far-Right" serif:id="Far Right" d="M50,2137.5L1030,2137.5" style="fill:none;stroke:#031c26;stroke-width:5px;"/>
                </g>
                <path d="M50,3747.91L1030,3747.91" style="fill:none;stroke:#031c26;stroke-width:5px;"/>
                <path id="_22nd" serif:id="22nd" d="M50,3608.24L1030,3608.24" style="fill:none;"/>
                <clipPath id="_clip2">
                    <path d="M50,3608.24L1030,3608.24"/>
                </clipPath>
                <g clip-path="url(#_clip2)">
                    <path id="Far-Right1" serif:id="Far Right" d="M50,1997.83L1030,1997.83" style="fill:none;stroke:#031c26;stroke-width:5px;"/>
                </g>
                <path d="M50,3608.24L1030,3608.24" style="fill:none;stroke:#031c26;stroke-width:5px;"/>
                <path id="_21th" serif:id="21th" d="M50,3286.33L1030,3286.33" style="fill:none;"/>
                <clipPath id="_clip3">
                    <path d="M50,3286.33L1030,3286.33"/>
                </clipPath>
                <g clip-path="url(#_clip3)">
                    <path id="Far-Right2" serif:id="Far Right" d="M50,1675.91L1030,1675.91" style="fill:none;stroke:#031c26;stroke-width:5px;"/>
                </g>
                <path d="M50,3286.33L1030,3286.33" style="fill:none;stroke:#031c26;stroke-width:5px;"/>
                <path id="_20th" serif:id="20th" d="M50,3066.26L1030,3066.26" style="fill:none;"/>
                <clipPath id="_clip4">
                    <path d="M50,3066.26L1030,3066.26"/>
                </clipPath>
                <g clip-path="url(#_clip4)">
                    <path id="Far-Right3" serif:id="Far Right" d="M50,1455.85L1030,1455.85" style="fill:none;stroke:#031c26;stroke-width:5px;"/>
                </g>
                <path d="M50,3066.26L1030,3066.26" style="fill:none;stroke:#031c26;stroke-width:5px;"/>
                <path id="_19th" serif:id="19th" d="M50,3029.77L1030,3029.77" style="fill:none;"/>
                <clipPath id="_clip5">
                    <path d="M50,3029.77L1030,3029.77"/>
                </clipPath>
                <g clip-path="url(#_clip5)">
                    <path id="Far-Right4" serif:id="Far Right" d="M50,1419.36L1030,1419.36" style="fill:none;stroke:#031c26;stroke-width:5px;"/>
                </g>
                <path d="M50,3029.77L1030,3029.77" style="fill:none;stroke:#031c26;stroke-width:5px;"/>
                <path id="_18th" serif:id="18th" d="M50,2732.76L1030,2732.76" style="fill:none;"/>
                <clipPath id="_clip6">
                    <path d="M50,2732.76L1030,2732.76"/>
                </clipPath>
                <g clip-path="url(#_clip6)">
                    <path id="Far-Right5" serif:id="Far Right" d="M50,1122.35L1030,1122.35" style="fill:none;stroke:#031c26;stroke-width:5px;"/>
                </g>
                <path d="M50,2732.76L1030,2732.76" style="fill:none;stroke:#031c26;stroke-width:5px;"/>
                <path id="_17th" serif:id="17th" d="M50,2546.47L1030,2546.47" style="fill:none;"/>
                <clipPath id="_clip7">
                    <path d="M50,2546.47L1030,2546.47"/>
                </clipPath>
                <g clip-path="url(#_clip7)">
                    <path id="Far-Right6" serif:id="Far Right" d="M50,936.053L1030,936.053" style="fill:none;stroke:#031c26;stroke-width:5px;"/>
                </g>
                <path d="M50,2546.47L1030,2546.47" style="fill:none;stroke:#031c26;stroke-width:5px;"/>
                <path id="_16th" serif:id="16th" d="M50,2442.5L1030,2442.5" style="fill:none;"/>
                <clipPath id="_clip8">
                    <path d="M50,2442.5L1030,2442.5"/>
                </clipPath>
                <g clip-path="url(#_clip8)">
                    <path id="Far-Right7" serif:id="Far Right" d="M50,832.084L1030,832.084" style="fill:none;stroke:#031c26;stroke-width:5px;"/>
                </g>
                <path d="M50,2442.5L1030,2442.5" style="fill:none;stroke:#031c26;stroke-width:5px;"/>
                <path id="_15th" serif:id="15th" d="M50,2069L1030,2069" style="fill:none;"/>
                <clipPath id="_clip9">
                    <path d="M50,2069L1030,2069"/>
                </clipPath>
                <g clip-path="url(#_clip9)">
                    <path id="Far-Right8" serif:id="Far Right" d="M50,458.586L1030,458.586" style="fill:none;stroke:#031c26;stroke-width:5px;"/>
                </g>
                <path d="M50,2069L1030,2069" style="fill:none;stroke:#031c26;stroke-width:5px;"/>
                <path id="_14th" serif:id="14th" d="M50,1867.88L1030,1867.88" style="fill:none;"/>
                <clipPath id="_clip10">
                    <path d="M50,1867.88L1030,1867.88"/>
                </clipPath>
                <g clip-path="url(#_clip10)">
                    <path id="Far-Right9" serif:id="Far Right" d="M50,257.464L1030,257.464" style="fill:none;stroke:#031c26;stroke-width:5px;"/>
                </g>
                <path d="M50,1867.88L1030,1867.88" style="fill:none;stroke:#031c26;stroke-width:5px;"/>
                <path id="_13th" serif:id="13th" d="M50,1721.81L1030,1721.81" style="fill:none;"/>
                <clipPath id="_clip11">
                    <path d="M50,1721.81L1030,1721.81"/>
                </clipPath>
                <g clip-path="url(#_clip11)">
                    <path id="Far-Right10" serif:id="Far Right" d="M50,111.391L1030,111.391" style="fill:none;stroke:#031c26;stroke-width:5px;"/>
                </g>
                <path d="M50,1721.81L1030,1721.81" style="fill:none;stroke:#031c26;stroke-width:5px;"/>
                <path id="_12th" serif:id="12th" d="M50,1688L1030,1688" style="fill:none;stroke:#031c26;stroke-width:5px;"/>
                <path id="_11th" serif:id="11th" d="M50,1538.89L1030,1538.89" style="fill:none;stroke:#031c26;stroke-width:5px;"/>
                <path id="_10th" serif:id="10th" d="M50,1324L1030,1324" style="fill:none;stroke:#031c26;stroke-width:5px;"/>
                <path id="_8th" serif:id="8th" d="M50,1063.42L1030,1063.42" style="fill:none;stroke:#031c26;stroke-width:5px;"/>
                <path id="_7th" serif:id="7th" d="M50,960L1030,960" style="fill:none;stroke:#031c26;stroke-width:5px;"/>
                <path id="_5th" serif:id="5th" d="M50,662.7L1030,662.7" style="fill:none;stroke:#031c26;stroke-width:5px;"/>
                <path id="_4th" serif:id="4th" d="M50,596L1030,596" style="fill:none;stroke:#031c26;stroke-width:5px;"/>
                <path id="_2nd" serif:id="2nd" d="M50,414L1030,414" style="fill:none;stroke:#031c26;stroke-width:5px;"/>
                <path id="Top" d="M50,232L1030,232" style="fill:none;stroke:#031c26;stroke-width:5px;"/>
            </g>
            <g id="Vertical">
                <path id="Right" d="M954.994,3790L954.994,50" style="fill:none;stroke:#031c26;stroke-width:5px;"/>
                <path id="_2nd-Right" serif:id="2nd Right" d="M847.661,3790L847.661,50" style="fill:none;stroke:#031c26;stroke-width:5px;"/>
                <path id="_5th-Right" serif:id="5th Right" d="M628.629,3790L628.629,50" style="fill:none;stroke:#031c26;stroke-width:5px;"/>
                <path id="_3rd-Left" serif:id="3rd Left" d="M379.188,3790L379.188,50" style="fill:none;stroke:#031c26;stroke-width:5px;"/>
                <path id="_2nd-Left" serif:id="2nd Left" d="M298.782,3790L298.782,50" style="fill:none;stroke:#031c26;stroke-width:5px;"/>
                <path id="Left" d="M90.458,3790L90.458,50" style="fill:none;stroke:#031c26;stroke-width:5px;"/>
            </g>
        </g>
        <g id="Yellow-Polygons" serif:id="Yellow Polygons">
            <g>
                <path d="M279.18,3425.09C275.277,3515.93 271.374,3606.78 267.471,3697.62C240.147,3689.81 212.824,3682 185.501,3674.2C173.791,3576.97 162.081,3479.74 150.371,3382.51C193.307,3396.71 236.244,3410.9 279.18,3425.09Z" style="fill:#f2cb05;"/>
            </g>
            <g>
                <path d="M997.317,3436.31L997.317,3560.82C897.392,3589.21 797.466,3617.6 697.541,3645.99C678.805,3566.78 660.07,3487.58 641.334,3408.38C759.995,3417.69 878.656,3427 997.317,3436.31Z" style="fill:#f2cb05;"/>
            </g>
            <g>
                <path d="M752.999,2911.57C752.999,2931.45 752.999,2951.32 752.999,2971.19C569.969,2980.56 386.938,2989.92 203.908,2999.29C224.063,2924.06 244.219,2848.84 264.374,2773.61C427.249,2819.6 590.124,2865.59 752.999,2911.57Z" style="fill:#f2cb05;"/>
            </g>
            <g>
                <path d="M981.859,2604.69L981.859,2694.11C967.097,2689.39 952.336,2684.67 937.574,2679.94C934.451,2654.86 931.329,2629.78 928.206,2604.69C946.09,2604.69 963.975,2604.69 981.859,2604.69Z" style="fill:#f2cb05;"/>
            </g>
            <g>
                <path d="M697.18,2035.02C704.447,2136.93 711.714,2238.84 718.982,2340.76C674.356,2340.76 629.73,2340.76 585.105,2340.76C561.032,2232.49 536.959,2124.21 512.886,2015.94C574.317,2022.3 635.749,2028.66 697.18,2035.02Z" style="fill:#f2cb05;"/>
            </g>
            <g>
                <path d="M355.499,2246.45C355.499,2298.97 355.499,2351.48 355.499,2404C322.001,2404 288.504,2404 255.006,2404C244.786,2360.28 234.567,2316.57 224.347,2272.85C268.064,2264.05 311.782,2255.25 355.499,2246.45Z" style="fill:#f2cb05;"/>
            </g>
            <g>
                <path d="M113.24,1211.69C180.732,1206.33 248.224,1200.96 315.717,1195.6C315.717,1254.81 315.717,1314.02 315.717,1373.24C248.224,1376.98 180.732,1380.72 113.24,1384.46C113.24,1326.87 113.24,1269.28 113.24,1211.69Z" style="fill:#f2cb05;"/>
            </g>
            <g>
                <path d="M831.41,1023.06C870.159,1020.76 908.907,1018.47 947.655,1016.17C945.26,1056.82 942.864,1097.46 940.469,1138.11C903.418,1139.8 866.366,1141.5 829.315,1143.19C830.013,1103.15 830.712,1063.1 831.41,1023.06Z" style="fill:#f2cb05;"/>
            </g>
            <g>
                <path d="M900.614,134.821C937.162,134.821 973.71,134.821 1010.26,134.821C1010.26,145.298 1010.26,155.775 1010.26,166.252C973.71,177.59 937.162,188.927 900.614,200.264C900.614,178.45 900.614,156.635 900.614,134.821Z" style="fill:#f2cb05;"/>
            </g>
            <g>
                <path d="M735.157,1487.65C799.525,1492.64 863.894,1497.63 928.263,1502.62C928.263,1524.55 928.263,1546.47 928.263,1568.4C863.695,1573.99 799.126,1579.58 734.558,1585.17C734.757,1552.66 734.957,1520.15 735.157,1487.65Z" style="fill:#f2cb05;"/>
            </g>
            <g>
                <path d="M568.629,609.381C656.223,609.381 743.817,609.381 831.41,609.381C831.41,641.299 831.41,673.218 831.41,705.137C742.257,713.324 653.104,721.51 563.951,729.697C565.511,689.592 567.07,649.486 568.629,609.381Z" style="fill:#f2cb05;"/>
            </g>
            <g>
                <path d="M177.565,181.768C223.615,188.346 269.666,194.925 315.717,201.504C318.153,304.569 320.59,407.635 323.026,510.701C274.539,507.29 226.052,503.878 177.565,500.467L177.565,181.768Z" style="fill:#f2cb05;"/>
            </g>
            <g>
                <path d="M246.641,1730.79C305.727,1730.79 364.813,1730.79 423.899,1730.79C427.517,1751.08 431.134,1771.38 434.752,1791.67C355.706,1795.29 276.66,1798.9 197.613,1802.52C213.956,1778.61 230.298,1754.7 246.641,1730.79Z" style="fill:#f2cb05;"/>
            </g>
            <g>
                <path d="M557.85,1014.04C588.465,1015.66 619.08,1017.28 649.694,1018.9C656.181,1132.85 662.668,1246.8 669.155,1360.75C609.224,1361.37 549.293,1362 489.362,1362.62C512.192,1246.43 535.021,1130.23 557.85,1014.04Z" style="fill:#f2cb05;"/>
            </g>
            <g>
                <path d="M575.077,75.816C613.437,75.816 651.798,75.816 690.159,75.816C690.354,176.201 690.549,276.587 690.744,376.972C638.154,369.37 585.563,361.768 532.973,354.166C547.008,261.383 561.042,168.599 575.077,75.816Z" style="fill:#f2cb05;"/>
            </g>
        </g>
        <g id="Orange-Polygons" serif:id="Orange Polygons">
            <g>
                <path d="M990.587,3701.12C987.704,3728.58 984.82,3756.03 981.936,3783.49C957.046,3783.49 932.156,3783.49 907.265,3783.49C902.242,3758.54 897.219,3733.6 892.196,3708.66C924.993,3706.14 957.79,3703.63 990.587,3701.12Z" style="fill:#f28157;"/>
            </g>
            <g>
                <path d="M122.956,2628.46C123.254,2674.32 123.552,2720.18 123.849,2766.05C106.338,2759.79 88.827,2753.54 71.316,2747.29C73.995,2714.23 76.674,2681.17 79.353,2648.11C93.887,2641.56 108.422,2635.01 122.956,2628.46Z" style="fill:#f28157;"/>
            </g>
            <g>
                <path d="M171.529,3240.38C169.761,3255.73 167.994,3271.08 166.227,3286.43L119.065,3286.43C118.321,3267.73 117.577,3249.03 116.833,3230.34C135.065,3233.68 153.297,3237.03 171.529,3240.38Z" style="fill:#f28157;"/>
            </g>
            <g>
                <path d="M701.876,3166.3C690.016,3179.54 678.156,3192.77 666.295,3206.01C597.696,3208.45 529.097,3210.89 460.497,3213.33C454.8,3186.61 449.102,3159.89 443.405,3133.16C529.562,3144.21 615.719,3155.25 701.876,3166.3Z" style="fill:#f28157;"/>
            </g>
            <g>
                <path d="M989.832,2261.33C993.776,2326.07 997.721,2390.8 1001.67,2455.53C979.687,2459.1 957.71,2462.68 935.732,2466.25C938.56,2395.86 941.388,2325.47 944.216,2255.08C959.421,2257.17 974.627,2259.25 989.832,2261.33Z" style="fill:#f28157;"/>
            </g>
            <g>
                <path d="M213.411,2026.74C211.085,2060.17 208.76,2093.6 206.434,2127.03C162.249,2115.4 118.065,2103.77 73.88,2092.14C76.496,2077.47 79.112,2062.78 81.728,2048.11C125.622,2040.98 169.517,2033.86 213.411,2026.74Z" style="fill:#f28157;"/>
            </g>
            <g>
                <path d="M765.095,429.083C843.137,429.083 921.18,429.083 999.222,429.083C999.222,442.922 999.222,456.762 999.222,470.601C937.946,481.155 876.67,491.709 815.394,502.263C798.628,477.87 781.861,453.476 765.095,429.083Z" style="fill:#f28157;"/>
            </g>
            <g>
                <path d="M192.53,777.327C269.33,786.309 346.129,795.291 422.929,804.273C422.929,816.748 422.929,829.223 422.929,841.698C346.129,849.682 269.33,857.666 192.53,865.65C192.53,836.209 192.53,806.768 192.53,777.327Z" style="fill:#f28157;"/>
            </g>
            <g>
                <path d="M334.534,1498.88C366.969,1500.91 399.404,1502.93 431.839,1504.96C431.839,1541.76 431.839,1578.56 431.839,1615.37C399.404,1601.49 366.969,1587.61 334.534,1573.73C334.534,1548.78 334.534,1523.83 334.534,1498.88Z" style="fill:#f28157;"/>
            </g>
            <g>
                <path d="M908.834,1223.83C932.469,1223.83 956.105,1223.83 979.74,1223.83C977.644,1270.05 975.549,1316.28 973.453,1362.51C958.201,1369.5 942.948,1376.48 927.696,1383.47C921.408,1330.25 915.121,1277.04 908.834,1223.83Z" style="fill:#f28157;"/>
            </g>
            <g>
                <path d="M586.691,1704.67C657.331,1704.67 727.971,1704.67 798.611,1704.67C792.304,1730.33 785.997,1755.99 779.689,1781.65C724.538,1787.96 669.387,1794.27 614.236,1800.58C605.054,1768.61 595.873,1736.64 586.691,1704.67Z" style="fill:#f28157;"/>
            </g>
            <g>
                <path d="M77.876,60.924C103.402,60.924 128.928,60.924 154.455,60.924C148.323,83.29 142.191,105.657 136.059,128.023C117.769,129.985 99.478,131.947 81.187,133.909C80.083,109.581 78.98,85.252 77.876,60.924Z" style="fill:#f28157;"/>
            </g>
        </g>
        <g id="Dark-Polygons" serif:id="Dark Polygons">
            <g>
                <path d="M394.727,3719.8C392.401,3740.26 390.076,3760.72 387.75,3781.19C357.664,3781.19 327.577,3781.19 297.491,3781.19C297.491,3762.59 297.491,3743.98 297.491,3725.38C329.903,3723.52 362.315,3721.66 394.727,3719.8Z" style="fill:#031c26;"/>
            </g>
            <g>
                <path d="M955.516,3030.46C955.516,3065.8 955.516,3101.15 955.516,3136.5C919.702,3128.13 883.889,3119.76 848.076,3111.38C847.96,3084.41 847.844,3057.43 847.727,3030.46C883.657,3030.46 919.586,3030.46 955.516,3030.46Z" style="fill:#031c26;"/>
            </g>
            <g>
                <path d="M407.829,2442.62C403.364,2485.09 398.899,2527.56 394.434,2570.04C357.62,2569.89 320.807,2569.74 283.994,2569.59C283.324,2527.26 282.655,2484.94 281.985,2442.62C323.933,2442.62 365.881,2442.62 407.829,2442.62Z" style="fill:#031c26;"/>
            </g>
            <g>
                <path d="M847.661,1687.95C883.439,1687.95 919.216,1687.95 954.994,1687.95C954.994,1701.25 954.994,1714.55 954.994,1727.85C919.216,1733.28 883.439,1738.72 847.661,1744.16C847.661,1725.42 847.661,1706.69 847.661,1687.95Z" style="fill:#031c26;"/>
            </g>
            <g>
                <path d="M284.802,596.511C320.213,596.511 355.624,596.511 391.035,596.511C387.086,618.526 383.137,640.541 379.188,662.556C349.484,662.556 319.78,662.556 290.075,662.556C288.318,640.541 286.56,618.526 284.802,596.511Z" style="fill:#031c26;"/>
            </g>
            <path d="M513.683,3369.12C513.683,3369.12 503.053,3380.9 496.486,3389.35C490.034,3397.65 486.681,3415.11 486.681,3415.11C486.681,3415.11 482.062,3408.34 464.528,3407.31C444.262,3406.11 435.773,3405.31 435.773,3405.31C435.773,3405.31 446.017,3395.92 452.584,3387.47C458.868,3379.39 462.035,3360.07 462.035,3360.07C462.035,3360.07 477.635,3370.11 488.31,3370.83C498.458,3371.52 513.683,3369.12 513.683,3369.12Z" style="fill:#031c26;"/>
            <path d="M801.905,2617.35C801.905,2617.35 785.902,2630.55 778.554,2639.81C771.333,2648.9 757.816,2672.88 757.816,2672.88C757.816,2672.88 747.273,2673.27 727.893,2672.33C705.492,2671.23 687.031,2668.79 687.031,2668.79C687.031,2668.79 706.712,2649.12 714.06,2639.86C721.092,2631.01 731.12,2613.27 731.12,2613.27C731.12,2613.27 752.398,2619.9 764.196,2620.58C775.412,2621.22 801.905,2617.35 801.905,2617.35Z" style="fill:#031c26;"/>
            <path d="M130.917,1590.98C130.917,1590.98 155.662,1597.75 167.735,1597.21C179.598,1596.68 203.351,1587.74 203.351,1587.74C203.351,1587.74 212.698,1609.58 219.941,1618.95C227.333,1628.51 247.702,1645.1 247.702,1645.1C247.702,1645.1 222.297,1640.31 210.225,1640.85C198.671,1641.36 175.268,1648.34 175.268,1648.34C175.268,1648.34 168.259,1628.5 160.867,1618.94C153.84,1609.85 130.917,1590.98 130.917,1590.98Z" style="fill:#031c26;"/>
            <path d="M771.699,1252.34C771.699,1252.34 756.651,1222.74 748.541,1214.14C740.572,1205.7 723.041,1200.77 723.041,1200.77C723.041,1200.77 729.161,1191.41 732.868,1172.37C737.153,1150.35 737.197,1131.3 737.197,1131.3C737.197,1131.3 752.786,1153.17 760.895,1161.77C768.657,1169.99 785.855,1182.87 785.855,1182.87C785.855,1182.87 775.189,1199.16 772.83,1210.74C770.587,1221.75 771.699,1252.34 771.699,1252.34Z" style="fill:#031c26;"/>
            <path d="M910.766,339.004C910.766,339.004 898.458,316.823 890.8,310.916C883.276,305.111 864.822,303.561 864.822,303.561C864.822,303.561 878.466,302.256 883.867,287.374C890.109,270.172 885.176,249.222 885.176,249.222C885.176,249.222 897.717,270.265 905.374,276.172C912.703,281.825 931.12,284.665 931.12,284.665C931.12,284.665 918.582,297.838 915.19,306.895C911.964,315.505 910.766,339.004 910.766,339.004Z" style="fill:#031c26;"/>
        </g>
    </g>
</svg>
