<?xml version="1.0" encoding="UTF-8" standalone="no"?>
<!DOCTYPE svg PUBLIC "-//W3C//DTD SVG 1.1//EN" "http://www.w3.org/Graphics/SVG/1.1/DTD/svg11.dtd">
<svg width="100%" height="100%" viewBox="0 0 1080 3840" version="1.1" xmlns="http://www.w3.org/2000/svg" xmlns:xlink="http://www.w3.org/1999/xlink" xml:space="preserve" xmlns:serif="http://www.serif.com/" style="fill-rule:evenodd;clip-rule:evenodd;stroke-linejoin:round;stroke-miterlimit:2;">
    <g>
        <clipPath id="_clip1">
            <rect x="-0" y="0" width="1080" height="3840"/>
        </clipPath>
        <g clip-path="url(#_clip1)">
            <path d="M-0,0L1080,0L1080,3840L-0,3840L-0,0Z" style="fill:#ffe101;"/>
            <path d="M50,623.646C71.646,640.398 75.7,642.721 108.922,642.134C133.399,641.702 168.509,630.13 196.827,619.46C225.373,608.705 257.026,598.34 280.197,577.601C307.347,553.299 326.242,495.161 359.73,473.65C393.218,452.138 457.925,428.999 481.122,448.534C504.32,468.068 518.68,560.101 498.913,590.856C479.146,621.611 401.648,626.495 362.521,633.065C330.17,638.496 296.719,626.359 264.151,630.274C230.779,634.285 192.699,645.448 162.293,657.134C133.837,668.07 100.428,686.901 81.713,700.389C68.396,709.986 52.629,721.859 50,738.062C40.318,797.724 2.338,965.068 23.622,1058.36C44.734,1150.9 104.036,1237.97 177.706,1297.82C227.888,1338.59 300.976,1321.94 375.619,1404.57C461.684,1499.83 406.139,1568.76 467.323,1650.25C549.152,1759.24 771.899,1782.12 856.873,1774.43C926.097,1768.16 976.299,1663.68 977.166,1604.1C977.799,1560.6 973.236,1479.13 962.005,1427.14C950.088,1371.97 882.528,1298.94 852.9,1250.88C830.693,1214.85 829.873,1201.56 849.019,1195.6C870.666,1188.86 900.835,1213.51 925.955,1243.31C1022.08,1357.31 1170.85,1631.65 1195.4,1659.46C1241.88,1712.11 1289.94,1837.51 1256.08,1920C1209.24,2034.08 1074.01,2257.6 914.358,2343.96C752.902,2431.3 497.224,2416.72 287.342,2444.02C69.111,2472.41 -319.624,2389.91 -395.029,2514.28C-470.434,2638.66 -291.769,3038.39 -165.088,3190.27C-41.251,3338.73 247.504,3400.69 365.054,3425.53C428.726,3438.99 521.087,3401.51 540.214,3339.3C559.908,3275.25 529.976,3117.88 483.218,3041.23C436.46,2964.59 297.633,2941.7 259.664,2879.42C222.898,2819.12 231.454,2708.39 255.406,2667.58C279.358,2626.77 355.387,2618.74 403.378,2634.58C455.54,2651.79 528.534,2711.68 568.382,2770.84C626.577,2857.24 712.805,3036.44 752.548,3153.01C787.168,3254.55 815.001,3381 806.839,3470.24C799.51,3550.39 764.25,3635.6 703.579,3688.47C616.641,3764.23 312.476,3823.98 285.213,3924.8C257.95,4025.63 404.851,4229.82 540,4293.43C722.309,4379.23 1117.92,4550.99 1379.07,4439.62C1648.86,4324.56 2061.91,3971.75 2158.76,3603.08C2284.65,3123.89 2253.51,2165.01 2134.39,1564.5C2023.49,1005.38 1636.01,282.464 1444.04,0C1354.2,-132.193 1139.55,-100.13 982.584,-130.284C815.174,-162.445 563.013,-193.645 439.582,-192.964C370.065,-192.58 290.944,-155.265 242.003,-126.196C200.655,-101.636 170.017,-60.181 145.939,-18.55C118.724,28.506 94.7,100.156 78.71,156.137C63.72,208.616 58.821,263.474 50,317.335C39.517,381.348 19.35,494.112 15.809,540.214C14.399,558.583 23.056,580.04 28.754,593.946C33.37,605.209 40.374,616.196 50,623.646Z" style="fill:#ff8636;"/>
            <path d="M208.303,708.305C163.763,714.133 112.452,732.755 89.074,771.113C62.691,814.404 41.661,902.051 50,968.053C58.339,1034.05 87.357,1116.06 139.108,1167.12C192.562,1219.87 307.089,1237.8 370.723,1284.51C430.258,1328.21 492.701,1392.09 520.914,1447.39C546.669,1497.88 519.181,1575.78 540,1616.36C559.694,1654.75 606.638,1672.84 645.83,1690.88C689.686,1711.06 733.133,1739.25 803.138,1737.49C842.539,1736.49 856.29,1741.71 876.835,1717.49C894.467,1696.7 901.284,1672.83 906.643,1648.3C913.385,1617.42 918.54,1571.08 917.288,1532.26C915.869,1488.26 915.201,1431 898.126,1384.29C888.904,1359.06 829.7,1298.31 797.463,1265.52C741.426,1208.52 714.295,1159.2 762.87,1126.35C801.004,1100.55 879.477,1113.47 935.152,1167.45C981.07,1211.96 1029.3,1272.46 1043.96,1314.63C1066.19,1378.57 1096.6,1445.2 1121.68,1510.97C1147.76,1579.35 1242.84,1661.85 1200.46,1724.94C1148.68,1802.02 945.562,1935.85 811,1973.46C676.636,2011.02 505.014,1940.89 393.084,1950.59C304.647,1958.26 178.582,1983.51 139.424,2031.68C100.266,2079.85 120.711,2188.31 158.137,2239.6C195.562,2290.89 287.89,2334.36 363.976,2339.4C468.628,2346.33 650.479,2323.51 786.05,2281.18C922.583,2238.56 1103.12,2082.27 1183.17,2083.66C1257.16,2084.94 1303.15,2225.3 1266.34,2289.5C1221.64,2367.47 1048.37,2514.05 914.959,2551.48C781.545,2588.9 599.963,2517.52 465.856,2514.05C347.252,2510.99 199.72,2511.28 110.316,2530.68C43.018,2545.29 -38.688,2569.45 -70.573,2630.48C-119.088,2723.36 -227.205,2975.28 -180.77,3087.91C-134.335,3200.53 106.85,3274.34 208.037,3306.22C277.975,3328.25 393.084,3315.23 426.351,3279.19C459.618,3243.15 445.002,3141.18 407.639,3089.98C363.629,3029.69 209.77,2988.45 162.295,2917.41C114.82,2846.37 80.514,2718.5 122.791,2663.75C165.067,2609 327.937,2582.66 415.955,2588.9C502.537,2595.04 594.184,2635.47 650.903,2701.18C720.902,2782.26 792.288,2966.62 835.95,3075.43C871.83,3164.85 908.359,3257.8 912.88,3354.04C917.732,3457.31 929.929,3600.34 865.059,3695.03C796.446,3795.17 517.835,3861.36 501.202,3954.92C484.568,4048.49 635.084,4226.39 765.258,4256.41C908.029,4289.33 1250.64,4321.94 1357.83,4152.45C1534.85,3872.52 1797.37,3124.05 1827.41,2576.85C1860.32,1977.19 1651.43,1014.75 1555.33,554.518C1500.86,293.684 1405.07,-57.325 1250.76,-184.567C1096.44,-311.808 805.606,-260.528 629.44,-208.932C453.839,-157.502 276.483,26.624 193.766,125.007C137.256,192.218 141.118,315.549 133.134,381.365C127.55,427.399 87.7,490.687 145.861,519.898C197.476,545.822 241.129,471.984 288.244,447.031C342.58,418.252 413.86,351.861 471.877,347.23C529.895,342.599 598.362,386.644 636.349,419.246C671.49,449.406 704.684,496.967 699.796,542.839C694.908,588.712 657.932,664.159 607.021,694.483C553.82,726.171 447.046,730.663 380.593,732.966C322.612,734.976 256.89,701.947 208.303,708.305Z" style="fill:#e89ece;"/>
            <path d="M401.715,47.815C474.687,-6.213 590.4,-84.295 695.625,-129.019C835.033,-188.271 1052.44,-293.621 1238.16,-307.699C1423.88,-321.776 1754.69,-398.579 1809.94,-213.486C1956.67,278.154 2112.61,1935.54 2118.56,2642.14C2122.53,3112.32 1986.45,3760.78 1845.67,4026.1C1750.62,4205.24 1444.9,4252.57 1273.9,4234.01C1102.89,4215.46 866.308,3994.58 819.653,3914.76C779.89,3846.73 952.62,3822.16 993.972,3755.08C1042.1,3677.01 1117.91,3555.7 1108.41,3446.36C1098.43,3331.48 976.895,3175.57 934.092,3065.79C898.965,2975.7 677.91,2701.67 697.445,2629.27C711.093,2578.69 839.742,2644.14 976.354,2628C1050.24,2619.26 1171.62,2590.51 1202.89,2512.23C1234.16,2433.94 1218.19,2312.18 1177.61,2243.43C1137.02,2174.68 1046.44,2097.18 959.374,2099.72C852.92,2102.82 641.121,2238.11 538.881,2262.06C475.969,2276.8 389.623,2264.72 345.933,2243.43C307.217,2224.56 266.314,2168.25 276.738,2134.32C287.161,2100.38 355.161,2048.65 408.475,2039.84C491.642,2026.09 655.724,2076.29 775.741,2051.81C922.559,2021.87 1209.1,1960.88 1289.38,1860.2C1369.67,1759.51 1305.57,1564.56 1257.45,1447.69C1209.32,1330.81 1068.71,1223.02 1000.62,1158.93C957.078,1117.94 901.765,1077.27 848.928,1063.12C796.092,1048.97 712.72,1052.48 683.605,1074.03C654.49,1095.58 660.408,1155.32 674.237,1192.41C689.85,1234.28 750.884,1290.06 777.285,1325.26C796.471,1350.85 819.137,1374.63 832.641,1403.61C849.106,1438.96 873.093,1496.58 876.074,1537.32C878.838,1575.09 873.661,1628.59 850.525,1648.03C827.389,1667.48 768.91,1665.35 737.258,1653.99C705.606,1642.64 677.333,1611.26 660.611,1579.9C639.036,1539.45 633.217,1463.65 607.81,1411.28C582.403,1358.9 562.251,1309.79 508.169,1265.65C446.052,1214.95 413.65,1226.48 334.436,1192.41C262.75,1161.58 149.915,1064.95 114.715,1011.86C89.251,973.463 99.811,906.687 123.231,873.899C146.651,841.111 207.363,820.442 255.234,815.136C314.139,808.607 402.573,835.991 476.658,834.724C551.318,833.446 646.985,838.556 703.193,807.471C759.401,776.387 807.802,710.527 813.905,648.216C820.008,585.905 772.317,487.967 739.813,433.605C711.668,386.533 664.92,343.922 618.881,322.041C572.842,300.159 528.451,296.292 463.577,302.317C408.571,307.425 390.503,314.328 354.023,337.37C319.769,359.007 244.872,389.178 228.833,365.474C212.794,341.77 239.797,251.182 257.789,195.147C276.216,137.757 346.537,88.668 401.715,47.815ZM-74.209,2639.26C-27.37,2575.68 94.13,2562.62 146.363,2547.29C176.054,2538.58 225.565,2542.18 239.191,2547.29C249.365,2551.1 237.161,2571.92 228.12,2577.95C212.791,2588.17 169.813,2590.69 147.215,2608.61C119.111,2630.89 70.873,2668 59.497,2711.65C46.438,2761.76 41.896,2850.9 68.865,2909.23C95.833,2967.57 179.151,3021.51 221.307,3061.68C253.633,3092.48 306.896,3122.99 321.8,3150.24C333.916,3172.4 328.045,3207.73 310.728,3225.19C293.412,3242.65 250.207,3258.52 217.9,3254.99C176.312,3250.45 102.005,3235.68 61.2,3197.94C2.437,3143.57 -112.107,3021.93 -134.675,2928.82C-157.244,2835.71 -121.049,2702.85 -74.209,2639.26Z" style="fill:#9bbd25;"/>
            <path d="M666.974,-30.769C744.904,-61.29 881.215,-114.187 993.523,-113.739C1110.32,-113.273 1293.34,-132.083 1367.78,-27.973C1489.49,142.26 1676.9,577.278 1723.83,907.658C1790.11,1374.17 1861.92,2388.75 1765.42,2771.12C1703.8,3015.28 1274.63,3159.13 1144.8,3201.87C1070.24,3226.41 1008.47,3084.57 986.453,3027.55C955.703,2947.92 952.208,2912.93 910.605,2865.31C860.213,2807.63 790.41,2728.94 820.492,2701C863.47,2661.09 1172.98,2725.68 1199.36,2637.66C1239.5,2503.7 1240.14,2220.72 1229.97,2012.24C1217.88,1764.52 1189.58,1329.87 1126.86,1151.3C1088.76,1042.82 933.138,970.863 853.652,940.772C789.463,916.472 695.703,951.219 649.942,970.75C615.493,985.452 585.024,1020.98 579.086,1057.96C572.613,1098.27 591.009,1169.81 611.107,1212.61C630.265,1253.42 672.324,1278.98 699.677,1314.81C730.449,1355.12 777.913,1415.3 795.741,1454.48C808.996,1483.6 811.411,1529.42 806.642,1549.86C803.006,1565.44 781.434,1579.38 767.126,1577.11C752.819,1574.84 731.291,1553.95 720.797,1536.23C698.541,1498.65 665.384,1406.67 633.59,1351.6C603.786,1299.97 576.334,1243.35 530.032,1205.8C482,1166.85 393.089,1155.84 345.398,1117.91C300.351,1082.09 247.631,1017.19 243.883,978.244C240.136,939.296 282.586,891.278 322.915,884.224C387.185,872.983 527.42,919.652 629.502,910.795C731.585,901.938 879.996,884.451 935.409,831.082C990.821,777.713 970.95,664.162 961.979,590.581C953.247,518.956 917.127,442.397 881.585,389.596C848.779,340.858 801.873,298.074 748.731,273.774C695.589,249.474 614.287,251.518 562.734,243.797C521.727,237.655 465.535,239.823 439.418,227.445C419.283,217.903 395.335,189.079 406.034,169.534C420.455,143.191 484.634,101.093 525.944,69.383C569.434,35.999 613.287,-9.743 666.974,-30.769ZM76.29,3021.38C98.319,3041.93 129.621,3076.41 154.64,3095.64C182.694,3117.21 207.045,3127.43 208.463,3156.96C209.105,3170.32 190.972,3180.5 177.805,3182.85C160.659,3185.92 127.349,3185.95 105.586,3175.36C80.151,3162.98 45.508,3136.89 25.192,3108.59C2.936,3077.59 -27.495,3012.07 -27.95,2989.36C-28.304,2971.62 5.51,2967.12 22.467,2972.33C39.84,2977.66 58.541,3004.82 76.29,3021.38Z" style="fill:#54bcd6;"/>
            <path d="M729.244,-25.421C783.587,-61.102 868.661,-122.982 949.015,-145.758C1041.78,-172.051 1198.17,-237.242 1285.84,-183.183C1373.51,-129.124 1454.59,44.053 1475.05,178.594C1500.34,344.929 1493.34,669.96 1437.62,814.823C1392.47,932.224 1206.58,1017.21 1140.75,1047.77C1107.52,1063.2 1068.9,1014.89 1042.64,998.172C1020.69,984.192 991.33,963.665 983.235,947.483C974.866,930.754 977.417,930.841 984.325,906.605C994.148,872.144 1013.94,851.772 1016.48,821.578C1020.84,769.89 1020.84,668.421 1010.49,596.475C1000.32,525.848 977.785,445.861 954.348,389.903C934.472,342.448 897.481,290.523 869.866,260.727C848.304,237.463 818.676,221.368 788.654,211.128C753.499,199.137 694.089,202.499 658.934,188.782C627.587,176.551 583.718,148.903 577.722,128.827C571.727,108.751 609.152,90.825 636.914,70.769C666.125,49.665 689.755,0.507 729.244,-25.421ZM377.67,948.992C402.809,940.023 463.195,936.226 485.921,937.761C497.478,938.541 522.816,943.439 526.861,954.293C536.313,979.654 515.658,996.252 522.541,1024.63C528.414,1048.84 534.279,1049.54 544.183,1077.02C550.593,1094.81 555.187,1123.84 547.238,1135.34C539.289,1146.84 515.673,1142.17 500.398,1138.75C484.06,1135.08 465.489,1123.24 449.207,1113.36C426.34,1099.47 382.212,1075.74 363.192,1055.45C347.288,1038.47 332.676,1009.32 335.089,991.573C337.502,973.831 358.764,955.737 377.67,948.992ZM1142.78,2731.46C1184.84,2746.9 1283.11,2767.66 1316.65,2824.12C1355.35,2889.25 1401.95,3068.12 1374.97,3122.26C1347.99,3176.4 1206.37,3165.5 1154.77,3148.96C1105.76,3133.26 1086.73,3059.49 1065.38,3023.06C1048.46,2994.18 1044.5,2958.74 1026.69,2930.4C1008.7,2901.79 977.179,2874.81 957.467,2851.37C940.573,2831.28 916.77,2806.13 908.413,2789.78C902.87,2778.94 900.002,2762.99 907.323,2753.26C915.044,2743 937.032,2730.65 954.741,2728.19C980.904,2724.56 1032.95,2730.91 1064.3,2731.46C1090.45,2731.91 1118.22,2722.44 1142.78,2731.46Z" style="fill:#ffe101;"/>
            <path d="M792.483,-35.363C843.24,-65.226 975.981,-104.288 1052.74,-108.944C1121.1,-113.089 1210.64,-117.07 1253.05,-63.296C1301.3,-2.092 1341.56,147.038 1342.3,258.28C1343.09,379.098 1296.54,598.024 1257.81,661.612C1231.91,704.159 1142.22,672.513 1109.97,639.81C1077.72,607.108 1084.5,522.003 1064.32,465.396C1041.61,401.694 1003.69,304.268 973.71,257.599C953.027,225.399 917.161,200.937 884.459,185.38C851.756,169.824 804.746,170.278 777.494,164.26C758.452,160.055 732.414,158.355 720.946,149.271C710.134,140.708 704.186,122.794 708.682,109.755C713.224,96.583 738.882,86.371 748.198,70.24C762.165,46.053 759.584,-16.006 792.483,-35.363ZM473.304,974.627C481.604,976.699 474.201,992.648 475.418,1006.84C476.29,1017.01 481.714,1027.09 486.012,1037.73C490.691,1049.32 499.02,1074.93 491.181,1080.15C483.858,1085.02 464.008,1084.09 452.374,1078.4C439.584,1072.15 422.142,1055.66 414.439,1042.65C407.119,1030.29 396.753,1011.22 406.154,1000.35C415.965,989.016 448.551,968.449 473.304,974.627ZM1127.79,2748.75C1157.34,2755.7 1191.23,2778.62 1204.09,2798.45C1216.67,2817.85 1217.47,2854.63 1204.97,2867.78C1192.47,2880.94 1151.12,2878.98 1129.1,2877.38C1109.34,2875.94 1091.16,2864.88 1072.85,2858.19C1054.82,2851.61 1033.89,2843.73 1019.22,2837.26C1007.38,2832.05 993.489,2827.52 984.769,2819.39C976.057,2811.25 968.635,2797.58 966.891,2788.43C965.326,2780.21 967.752,2769.65 974.304,2764.44C981.716,2758.56 998.515,2754.42 1011.37,2753.11C1036.95,2750.49 1095.67,2741.19 1127.79,2748.75Z" style="fill:#ff8636;"/>
            <path d="M872.529,-21.199C841.877,5.304 820.691,66.467 821.199,88.996C821.65,108.938 846.304,106.087 875.582,113.972C922.748,126.674 925.878,135.48 951.452,163.68C975.873,190.609 1021.82,213.03 1050.01,244.939C1078.37,277.031 1079.63,361.302 1121.58,356.229C1163.53,351.157 1267.13,267.933 1301.7,214.505C1334.45,163.873 1338.03,87.612 1328.95,35.662C1319.99,-15.559 1288.21,-68.378 1247.19,-97.192C1206.17,-126.005 1138.09,-148.428 1082.83,-137.219C1020.38,-124.553 916.134,-58.902 872.529,-21.199Z" style="fill:#e89ece;"/>
            <path d="M956.905,-22.646C941.018,-9.603 931.324,14.272 927.254,31.422C923.474,47.352 925.165,65.615 932.487,80.258C939.972,95.229 957.352,109.324 972.166,121.246C987.427,133.527 1006.09,144.194 1024.05,153.948C1046.95,166.375 1077.84,194.165 1109.52,195.807C1148.76,197.842 1235.31,198.06 1259.51,166.157C1283.71,134.254 1271.43,44.14 1254.72,4.388C1238.89,-33.255 1192.29,-59.2 1159.23,-72.354C1127.35,-85.035 1089.64,-82.72 1056.32,-74.534C1022.6,-66.249 978.416,-40.305 956.905,-22.646Z" style="fill:#9bbd25;"/>
            <path d="M-54.604,1205.09C-3.139,1264.58 41.544,1338.39 98.423,1384.73C153.315,1429.44 214.299,1421.87 286.671,1483.09C365.064,1549.4 343.19,1628.95 391.171,1699.1C414.826,1733.68 478.446,1770.19 635.124,1812.89C710.525,1833.44 809.68,1850.17 867.538,1832.24C896.84,1823.15 969.869,1783.99 1004.08,1732.29C1026.62,1698.23 1028.53,1673.53 1030,1624.7C1030.75,1599.94 1030.41,1548.98 1019.23,1505.28C1012.76,1479.98 1004.97,1454.85 1003.75,1439.3C1002.77,1426.87 1007.43,1421.35 1009.69,1421.01C1014.87,1420.22 1050.06,1465.96 1062.52,1517.74C1075.32,1570.94 1074.19,1619.04 1069.43,1651.89C1061.71,1705.19 1065.19,1772.16 1048.83,1793.32C1014.76,1837.37 933.789,1864.34 925.482,1869.42C890.013,1891.09 816.674,1920.13 732.395,1922.5C601.239,1926.2 461.143,1882.64 372.874,1883.73C293.032,1884.71 191.416,1904.4 136.68,1923.65C99.186,1936.84 74.337,1957.55 44.459,1999.23C10.236,2046.96 -13.527,2202.75 72.806,2296.26C116.587,2343.68 169.298,2369.31 216.738,2378.51C269.553,2388.76 391.364,2378.03 404.565,2385.67C411.724,2389.81 420.666,2398.79 398.358,2407.35C368.06,2418.97 326.507,2418.44 307.831,2420.3C268.933,2424.19 212.807,2432.14 180.629,2434.16C134.375,2437.06 87.063,2428.14 43.006,2414.4C-1.052,2400.66 -59.812,2311.11 -83.717,2351.72C-147.308,2459.76 -335.325,2887.28 -338.54,3062.61C-341.073,3200.76 -196.155,3327.45 -103.009,3403.73C-14.368,3476.31 120.98,3498.34 220.335,3520.25C309.264,3539.87 422.619,3568.43 493.123,3535.22C579.357,3494.6 612.958,3452.48 634.563,3398.91C639.253,3387.28 632.872,3267.63 615.96,3215.71C598.337,3161.62 603.14,3145.44 576.488,3078.06C555.099,3023.98 546.133,3019.29 517.32,2982.16C490.357,2947.41 416.619,2903.07 369.746,2840.47C352.964,2818.05 322.487,2770.49 321.741,2735.34C321.263,2712.81 330.124,2700.47 345.191,2694.52C362.976,2687.49 452.141,2710.53 490.383,2765.94C542.997,2842.18 567.039,2895.11 595.714,2957.96C625.557,3023.37 632.019,3049.16 657.918,3089.64C692.85,3144.25 713.048,3196.7 724.107,3235.31C747.825,3318.11 752.69,3357.3 747.567,3433.83C743.852,3489.33 732.964,3503.77 712.684,3533.56C677.599,3585.09 542.469,3665.24 469.836,3701.56C410.418,3731.26 341.858,3737.59 276.889,3751.45C169.049,3774.47 -23.565,3852.65 -177.203,3839.61C-409.186,3819.93 -1022.78,3939.86 -1115.01,3633.36C-1247.49,3193.11 -1082.46,1646.9 -972.071,1198.13C-925.915,1010.49 -573.393,976.271 -452.672,940.683C-385.665,920.929 -305.94,945.943 -247.749,984.595C-181.404,1028.66 -112.3,1138.4 -54.604,1205.09Z" style="fill:#54bcd6;"/>
            <path d="M-38.266,1367.97C0.076,1394.17 33.463,1452.51 69.638,1477.11C101.535,1498.8 146.742,1500.88 178.782,1515.56C208.112,1529 243.981,1538.33 261.88,1565.17C281.29,1594.28 278.19,1646.18 295.243,1690.19C315.058,1741.33 326.333,1753.82 369.784,1785.32C398.841,1806.39 446.474,1814.36 469.626,1825.63C483.909,1832.58 505.593,1845.37 508.694,1852.91C511.795,1860.46 497.311,1870.86 488.23,1870.9C463.321,1871 400.801,1865.98 359.241,1853.54C265.141,1825.35 268.053,1821.54 223.04,1818.33C168.603,1814.45 137.731,1824.71 79.515,1851.78C35.596,1872.21 40.446,1875.64 0.188,1908.25C-28.155,1931.2 -65.11,1970.3 -69.893,2011.67C-75.263,2058.12 -50.849,2137.18 -32.033,2186.96C-15.012,2231.99 23.159,2280.29 43.004,2310.37C56.233,2330.42 78.661,2353.47 87.033,2367.42C91.728,2375.24 96.439,2389.23 93.235,2394.09C90.031,2398.94 75.181,2400.83 67.809,2396.57C54.579,2388.92 32.534,2363.51 13.857,2348.2C-6.814,2331.24 -28.032,2286.67 -56.218,2294.86C-105.622,2309.23 -258.278,2349.15 -282.568,2434.39C-310.164,2531.24 -246.971,2729.51 -221.794,2875.93C-191.511,3052.05 -135.492,3380.72 -100.868,3491.11C-91.013,3522.53 -44.909,3526.75 -14.049,3538.24C23.986,3552.4 79.093,3568.83 127.342,3576.06C188.012,3585.16 283.926,3593.22 349.971,3592.81C408.203,3592.44 475.548,3591.77 523.609,3573.58C569.051,3556.38 611.668,3513.84 638.334,3483.66C660.798,3458.24 675.871,3414.61 683.604,3392.5C691.058,3371.19 692.377,3363.91 707.789,3361.5C718.323,3359.85 723.072,3363.45 725.153,3375.76C727.48,3389.53 727.081,3423.26 718.331,3444.6C694.254,3503.3 683.807,3514.68 625.931,3563.66C573.798,3607.78 468.097,3652.5 382.218,3679.01C267.699,3714.36 87.803,3801.99 -61.179,3775.75C-213.045,3748.99 -471.071,3686.76 -528.975,3518.49C-657.881,3143.88 -861.346,1898.85 -834.614,1528.09C-822.112,1354.68 -480.953,1328.58 -368.585,1293.89C-301.766,1273.26 -215.463,1307.56 -160.41,1319.91C-117.717,1329.48 -74.39,1343.28 -38.266,1367.97Z" style="fill:#9bbd25;"/>
            <path d="M-96.22,1458.38C-47.978,1451.95 -20.531,1502.43 32.458,1527.38C81.325,1550.38 105.115,1552.96 146.408,1575.43C185.97,1596.97 200.45,1601.4 220.799,1633.86C236.327,1658.63 238.187,1685.88 240.067,1719.88C241.278,1741.78 217.31,1759.75 198.344,1770.78C177.308,1783.01 142.941,1791.49 113.851,1793.26C63.391,1796.32 43.457,1800.56 -1.618,1830.03C-56.151,1865.69 -63.465,1873.34 -95.811,1892.74C-141.164,1919.94 -266.593,1925.51 -273.734,1993.25C-300.546,2247.59 -279.289,3160.14 -256.68,3418.79C-251.65,3476.33 -189.018,3517.9 -138.079,3545.14C-73.094,3579.89 67.319,3613.3 133.23,3627.31C173.715,3635.91 228.44,3629.9 257.385,3629.19C278.293,3628.68 283.739,3629.69 306.868,3632.74C322.65,3634.81 331.265,3635.78 332.448,3650.56C333.482,3663.48 329.215,3667.72 313.069,3672.27C295.311,3677.27 257.283,3684.79 229.351,3690.87C190.205,3699.4 128.062,3715.29 78.193,3723.43C29.191,3731.43 -23.856,3758.37 -69.864,3739.71C-165.727,3700.82 -425.953,3638.92 -496.983,3490.1C-600.43,3273.36 -700.476,2755.95 -690.55,2439.27C-681.296,2144.02 -536.483,1753.49 -437.428,1590.01C-374.256,1485.75 -174.534,1468.82 -96.22,1458.38Z" style="fill:#e89ece;"/>
            <path d="M-79.57,1558.11C-48.811,1560.3 24.282,1580.54 62.119,1594.23C92.51,1605.23 129.06,1623.8 147.45,1640.27C161.952,1653.26 170.271,1677.25 172.453,1693.06C174.447,1707.49 171.987,1726.1 160.547,1735.13C148.309,1744.78 118.808,1748.69 99.029,1751C80.097,1753.22 60.914,1748.03 41.878,1749.02C18.924,1750.21 -14.877,1753.18 -38.69,1758.14C-60.11,1762.61 -80.496,1779.05 -101.001,1778.78C-121.507,1778.52 -152.062,1775.82 -161.725,1756.56C-172.507,1735.06 -172.243,1679.03 -165.694,1649.8C-159.781,1623.4 -136.787,1596.41 -122.433,1581.13C-111.329,1569.31 -95.747,1556.97 -79.57,1558.11ZM-70.688,3624.89C-45.684,3624.76 24.433,3630.45 51.156,3634.81C64.906,3637.06 77.814,3646.26 89.654,3651.09C100.437,3655.48 115.717,3658.96 122.199,3663.79C126.868,3667.26 131.867,3675.27 128.549,3680.06C125.11,3685.02 111.373,3691.34 101.561,3693.55C88.927,3696.4 68.964,3695.36 52.744,3697.12C36.339,3698.91 18.81,3700.83 3.133,3704.27C-11.992,3707.59 -27.03,3717.57 -41.318,3717.76C-55.606,3717.96 -70.092,3712.27 -82.594,3705.46C-95.096,3698.65 -113.618,3688.53 -116.33,3676.88C-119.042,3665.24 -106.474,3644.27 -98.867,3635.61C-92.237,3628.06 -80.737,3624.95 -70.688,3624.89Z" style="fill:#ff8636;"/>
        </g>
    </g>
</svg>
