<?xml version="1.0" encoding="UTF-8" standalone="no"?>
<!DOCTYPE svg PUBLIC "-//W3C//DTD SVG 1.1//EN" "http://www.w3.org/Graphics/SVG/1.1/DTD/svg11.dtd">
<svg width="100%" height="100%" viewBox="0 0 1080 3840" version="1.1" xmlns="http://www.w3.org/2000/svg" xmlns:xlink="http://www.w3.org/1999/xlink" xml:space="preserve" xmlns:serif="http://www.serif.com/" style="fill-rule:evenodd;clip-rule:evenodd;stroke-linejoin:round;stroke-miterlimit:2;">
    <g>
        <clipPath id="_clip1">
            <rect x="-0" y="0" width="1080" height="3840"/>
        </clipPath>
        <g clip-path="url(#_clip1)">
            <path d="M-0,0L1080,0L1080,3840L-0,3840L-0,0Z" style="fill:#e2c6a7;"/>
            <g>
                <path d="M1030,2960.41L1030,3619.59C1030,3713.64 953.643,3790 859.593,3790L220.407,3790C126.357,3790 50,3713.64 50,3619.59L50,2960.41C50,2866.36 126.357,2790 220.407,2790L859.593,2790C953.643,2790 1030,2866.36 1030,2960.41Z" style="fill:#aa0d02;"/>
                <path d="M880,2958.21L880,3621.79C880,3714.63 804.628,3790 711.792,3790L368.208,3790C275.372,3790 200,3714.63 200,3621.79L200,2958.21C200,2865.37 275.372,2790 368.208,2790L711.792,2790C804.628,2790 880,2865.37 880,2958.21Z" style="fill:#e2c6a7;"/>
                <path d="M830,2959.21L830,3620.79C830,3714.18 754.18,3790 660.79,3790L419.21,3790C325.82,3790 250,3714.18 250,3620.79L250,2959.21C250,2865.82 325.82,2790 419.21,2790L660.79,2790C754.18,2790 830,2865.82 830,2959.21Z" style="fill:#ed5f31;"/>
                <path d="M680,2838.74L680,3741.26C680,3768.16 658.162,3790 631.265,3790L448.735,3790C421.838,3790 400,3768.16 400,3741.26L400,2838.74C400,2811.84 421.838,2790 448.735,2790L631.265,2790C658.162,2790 680,2811.84 680,2838.74Z" style="fill:#e2c6a7;"/>
                <path d="M630,2821.33L630,3758.67C630,3775.96 615.962,3790 598.67,3790L481.33,3790C464.038,3790 450,3775.96 450,3758.67L450,2821.33C450,2804.04 464.038,2790 481.33,2790L598.67,2790C615.962,2790 630,2804.04 630,2821.33Z" style="fill:#ef9f20;"/>
            </g>
            <g>
                <g>
                    <path d="M630,2590.15L630,2619.85C630,2713.76 553.759,2790 459.852,2790L320.148,2790C226.241,2790 150,2713.76 150,2619.85L150,2590.15C150,2496.24 226.241,2420 320.148,2420L459.852,2420C553.759,2420 630,2496.24 630,2590.15Z" style="fill:#ed5f31;"/>
                    <path d="M930,2590.15L930,2619.85C930,2713.76 853.759,2790 759.852,2790L620.148,2790C526.241,2790 450,2713.76 450,2619.85L450,2590.15C450,2496.24 526.241,2420 620.148,2420L759.852,2420C853.759,2420 930,2496.24 930,2590.15Z" style="fill:#ed5f31;"/>
                    <path d="M580,2590.15L580,2619.85C580,2713.76 503.759,2790 409.852,2790L350.148,2790C256.241,2790 180,2713.76 180,2619.85L180,2590.15C180,2496.24 256.241,2420 350.148,2420L409.852,2420C503.759,2420 580,2496.24 580,2590.15Z" style="fill:#e2c6a7;"/>
                    <path d="M900,2590.15L900,2619.85C900,2713.76 823.759,2790 729.852,2790L670.148,2790C576.241,2790 500,2713.76 500,2619.85L500,2590.15C500,2496.24 576.241,2420 670.148,2420L729.852,2420C823.759,2420 900,2496.24 900,2590.15Z" style="fill:#e2c6a7;"/>
                </g>
                <g>
                    <path d="M530,2590.15L530,2619.85C530,2713.76 453.759,2790 359.852,2790L220.148,2790C126.241,2790 50,2713.76 50,2619.85L50,2590.15C50,2496.24 126.241,2420 220.148,2420L359.852,2420C453.759,2420 530,2496.24 530,2590.15Z" style="fill:#aa0d02;"/>
                    <path d="M400,2590.15L400,2619.85C400,2713.76 323.759,2790 229.852,2790L170.148,2790C76.241,2790 -0,2713.76 -0,2619.85L-0,2590.15C-0,2496.24 76.241,2420 170.148,2420L229.852,2420C323.759,2420 400,2496.24 400,2590.15Z" style="fill:#e2c6a7;"/>
                    <path d="M1030,2590.15L1030,2619.85C1030,2713.76 953.759,2790 859.852,2790L720.148,2790C626.241,2790 550,2713.76 550,2619.85L550,2590.15C550,2496.24 626.241,2420 720.148,2420L859.852,2420C953.759,2420 1030,2496.24 1030,2590.15Z" style="fill:#aa0d02;"/>
                    <path d="M1080,2590.15L1080,2619.85C1080,2713.76 1003.76,2790 909.852,2790L850.148,2790C756.241,2790 680,2713.76 680,2619.85L680,2590.15C680,2496.24 756.241,2420 850.148,2420L909.852,2420C1003.76,2420 1080,2496.24 1080,2590.15Z" style="fill:#e2c6a7;"/>
                </g>
            </g>
            <g>
                <path d="M1030,1590.41L1030,2249.59C1030,2343.64 953.643,2420 859.593,2420L220.407,2420C126.357,2420 50,2343.64 50,2249.59L50,1590.41C50,1496.36 126.357,1420 220.407,1420L859.593,1420C953.643,1420 1030,1496.36 1030,1590.41Z" style="fill:#aa0d02;"/>
                <path d="M880,1588.21L880,2251.79C880,2344.63 804.628,2420 711.792,2420L368.208,2420C275.372,2420 200,2344.63 200,2251.79L200,1588.21C200,1495.37 275.372,1420 368.208,1420L711.792,1420C804.628,1420 880,1495.37 880,1588.21Z" style="fill:#e2c6a7;"/>
                <path d="M830,1589.21L830,2250.79C830,2344.18 754.18,2420 660.79,2420L419.21,2420C325.82,2420 250,2344.18 250,2250.79L250,1589.21C250,1495.82 325.82,1420 419.21,1420L660.79,1420C754.18,1420 830,1495.82 830,1589.21Z" style="fill:#ed5f31;"/>
                <path d="M680,1468.74L680,2371.26C680,2398.16 658.162,2420 631.265,2420L448.735,2420C421.838,2420 400,2398.16 400,2371.26L400,1468.74C400,1441.84 421.838,1420 448.735,1420L631.265,1420C658.162,1420 680,1441.84 680,1468.74Z" style="fill:#e2c6a7;"/>
                <path d="M630,1451.33L630,2388.67C630,2405.96 615.962,2420 598.67,2420L481.33,2420C464.038,2420 450,2405.96 450,2388.67L450,1451.33C450,1434.04 464.038,1420 481.33,1420L598.67,1420C615.962,1420 630,1434.04 630,1451.33Z" style="fill:#ef9f20;"/>
            </g>
            <g>
                <g>
                    <path d="M630,1220.15L630,1249.85C630,1343.76 553.759,1420 459.852,1420L320.148,1420C226.241,1420 150,1343.76 150,1249.85L150,1220.15C150,1126.24 226.241,1050 320.148,1050L459.852,1050C553.759,1050 630,1126.24 630,1220.15Z" style="fill:#ed5f31;"/>
                    <path d="M930,1220.15L930,1249.85C930,1343.76 853.759,1420 759.852,1420L620.148,1420C526.241,1420 450,1343.76 450,1249.85L450,1220.15C450,1126.24 526.241,1050 620.148,1050L759.852,1050C853.759,1050 930,1126.24 930,1220.15Z" style="fill:#ed5f31;"/>
                    <path d="M580,1220.15L580,1249.85C580,1343.76 503.759,1420 409.852,1420L350.148,1420C256.241,1420 180,1343.76 180,1249.85L180,1220.15C180,1126.24 256.241,1050 350.148,1050L409.852,1050C503.759,1050 580,1126.24 580,1220.15Z" style="fill:#e2c6a7;"/>
                    <path d="M900,1220.15L900,1249.85C900,1343.76 823.759,1420 729.852,1420L670.148,1420C576.241,1420 500,1343.76 500,1249.85L500,1220.15C500,1126.24 576.241,1050 670.148,1050L729.852,1050C823.759,1050 900,1126.24 900,1220.15Z" style="fill:#e2c6a7;"/>
                </g>
                <g>
                    <path d="M530,1220.15L530,1249.85C530,1343.76 453.759,1420 359.852,1420L220.148,1420C126.241,1420 50,1343.76 50,1249.85L50,1220.15C50,1126.24 126.241,1050 220.148,1050L359.852,1050C453.759,1050 530,1126.24 530,1220.15Z" style="fill:#aa0d02;"/>
                    <path d="M400,1220.15L400,1249.85C400,1343.76 323.759,1420 229.852,1420L170.148,1420C76.241,1420 -0,1343.76 -0,1249.85L-0,1220.15C-0,1126.24 76.241,1050 170.148,1050L229.852,1050C323.759,1050 400,1126.24 400,1220.15Z" style="fill:#e2c6a7;"/>
                    <path d="M1030,1220.15L1030,1249.85C1030,1343.76 953.759,1420 859.852,1420L720.148,1420C626.241,1420 550,1343.76 550,1249.85L550,1220.15C550,1126.24 626.241,1050 720.148,1050L859.852,1050C953.759,1050 1030,1126.24 1030,1220.15Z" style="fill:#aa0d02;"/>
                    <path d="M1080,1220.15L1080,1249.85C1080,1343.76 1003.76,1420 909.852,1420L850.148,1420C756.241,1420 680,1343.76 680,1249.85L680,1220.15C680,1126.24 756.241,1050 850.148,1050L909.852,1050C1003.76,1050 1080,1126.24 1080,1220.15Z" style="fill:#e2c6a7;"/>
                </g>
            </g>
            <g>
                <path d="M1030,220.407L1030,879.593C1030,973.643 953.643,1050 859.593,1050L220.407,1050C126.357,1050 50,973.643 50,879.593L50,220.407C50,126.357 126.357,50 220.407,50L859.593,50C953.643,50 1030,126.357 1030,220.407Z" style="fill:#aa0d02;"/>
                <path d="M880,218.208L880,881.792C880,974.628 804.628,1050 711.792,1050L368.208,1050C275.372,1050 200,974.628 200,881.792L200,218.208C200,125.372 275.372,50 368.208,50L711.792,50C804.628,50 880,125.372 880,218.208Z" style="fill:#e2c6a7;"/>
                <path d="M830,219.21L830,880.79C830,974.18 754.18,1050 660.79,1050L419.21,1050C325.82,1050 250,974.18 250,880.79L250,219.21C250,125.82 325.82,50 419.21,50L660.79,50C754.18,50 830,125.82 830,219.21Z" style="fill:#ed5f31;"/>
                <path d="M680,98.735L680,1001.26C680,1028.16 658.162,1050 631.265,1050L448.735,1050C421.838,1050 400,1028.16 400,1001.26L400,98.735C400,71.838 421.838,50 448.735,50L631.265,50C658.162,50 680,71.838 680,98.735Z" style="fill:#e2c6a7;"/>
                <path d="M630,81.33L630,1018.67C630,1035.96 615.962,1050 598.67,1050L481.33,1050C464.038,1050 450,1035.96 450,1018.67L450,81.33C450,64.038 464.038,50 481.33,50L598.67,50C615.962,50 630,64.038 630,81.33Z" style="fill:#ef9f20;"/>
            </g>
        </g>
    </g>
</svg>
