<?xml version="1.0" encoding="UTF-8" standalone="no"?>
<!DOCTYPE svg PUBLIC "-//W3C//DTD SVG 1.1//EN" "http://www.w3.org/Graphics/SVG/1.1/DTD/svg11.dtd">
<svg width="100%" height="100%" viewBox="0 0 1080 3840" version="1.1" xmlns="http://www.w3.org/2000/svg" xmlns:xlink="http://www.w3.org/1999/xlink" xml:space="preserve" xmlns:serif="http://www.serif.com/" style="fill-rule:evenodd;clip-rule:evenodd;stroke-linejoin:round;stroke-miterlimit:1.5;">
    <g>
        <path d="M-0,0L1080,0L1080,3840L-0,3840L-0,0Z" style="fill:#2b0d29;"/>
    </g>
    <g>
        <rect x="-0" y="3640" width="1080" height="200" style="fill:#f3d751;fill-opacity:0.25;"/>
        <rect x="-0" y="3465" width="1080" height="150" style="fill:#fa8057;fill-opacity:0.25;"/>
        <rect x="-0" y="3340" width="1080" height="100" style="fill:#e754b0;fill-opacity:0.25;"/>
        <rect x="-0" y="3265" width="1080" height="50" style="fill:#8ca9fd;fill-opacity:0.25;"/>
        <rect x="-0" y="3215" width="1080" height="25" style="fill:#2b0d29;fill-opacity:0.25;"/>
    </g>
    <g>
        <rect x="-0" y="0" width="1080" height="200" style="fill:#f3d751;fill-opacity:0.25;"/>
        <rect x="0" y="225" width="1080" height="150" style="fill:#fa8057;fill-opacity:0.25;"/>
        <rect x="0" y="400" width="1080" height="100" style="fill:#e754b0;fill-opacity:0.25;"/>
        <rect x="0" y="525" width="1080" height="50" style="fill:#8ca9fd;fill-opacity:0.25;"/>
        <rect x="0" y="600" width="1080" height="25" style="fill:#2b0d29;fill-opacity:0.25;"/>
    </g>
    <g>
        <g>
            <path d="M871.099,2999.16C847.133,2799.44 823.166,2599.72 799.2,2400" style="fill:none;stroke:#8ca9fd;stroke-width:4.04px;"/>
            <path d="M1080,3840C1008,3360 936,2880 864,2400" style="fill:none;stroke:#8ca9fd;stroke-width:4.04px;"/>
            <path d="M0,3840C72,3360 144,2880 216,2400" style="fill:none;stroke:#8ca9fd;stroke-width:4.04px;"/>
            <path d="M871.614,2450.76C650.538,2450.76 429.462,2450.76 208.386,2450.76" style="fill:none;stroke:#8ca9fd;stroke-width:4.04px;"/>
            <path d="M864,2400L216,2400" style="fill:none;stroke:#8ca9fd;stroke-width:4.04px;"/>
            <path d="M788.324,2999.16C770.35,2799.44 752.375,2599.72 734.4,2400" style="fill:none;stroke:#8ca9fd;stroke-width:4.04px;"/>
            <path d="M879.51,2503.4C653.17,2503.4 426.83,2503.4 200.49,2503.4" style="fill:none;stroke:#8ca9fd;stroke-width:4.04px;"/>
            <path d="M622.775,2999.16C616.783,2799.44 610.792,2599.72 604.8,2400" style="fill:none;stroke:#8ca9fd;stroke-width:4.04px;"/>
            <path d="M896.179,2614.53C658.726,2614.53 421.274,2614.53 183.821,2614.53" style="fill:none;stroke:#8ca9fd;stroke-width:4.04px;"/>
            <path d="M705.55,2999.16C693.566,2799.44 681.583,2599.72 669.6,2400" style="fill:none;stroke:#8ca9fd;stroke-width:4.04px;"/>
            <path d="M887.695,2557.97L192.305,2557.97" style="fill:none;stroke:#8ca9fd;stroke-width:4.04px;"/>
            <path d="M540,2999.16L540,2400" style="fill:none;stroke:#8ca9fd;stroke-width:4.04px;"/>
            <path d="M904.972,2673.15C661.657,2673.15 418.343,2673.15 175.028,2673.15" style="fill:none;stroke:#8ca9fd;stroke-width:4.04px;"/>
            <path d="M457.225,2999.16C463.217,2799.44 469.208,2599.72 475.2,2400" style="fill:none;stroke:#8ca9fd;stroke-width:4.04px;"/>
            <path d="M914.082,2733.88C664.694,2733.88 415.306,2733.88 165.918,2733.88" style="fill:none;stroke:#8ca9fd;stroke-width:4.04px;"/>
            <path d="M374.45,2999.16C386.434,2799.44 398.417,2599.72 410.4,2400" style="fill:none;stroke:#8ca9fd;stroke-width:4.04px;"/>
            <path d="M923.518,2796.78C667.839,2796.78 412.161,2796.78 156.482,2796.78" style="fill:none;stroke:#8ca9fd;stroke-width:4.04px;"/>
            <path d="M291.676,2999.16C309.65,2799.44 327.625,2599.72 345.6,2400" style="fill:none;stroke:#8ca9fd;stroke-width:4.04px;"/>
            <path d="M933.289,2861.93C671.096,2861.93 408.904,2861.93 146.711,2861.93" style="fill:none;stroke:#8ca9fd;stroke-width:4.04px;"/>
            <path d="M208.901,2999.16C232.867,2799.44 256.834,2599.72 280.8,2400" style="fill:none;stroke:#8ca9fd;stroke-width:4.04px;"/>
            <path d="M943.405,2929.37C674.468,2929.37 405.532,2929.37 136.595,2929.37" style="fill:none;stroke:#8ca9fd;stroke-width:4.04px;"/>
            <path d="M972,3840C938.366,3559.72 904.733,3279.44 871.099,2999.16" style="fill:none;stroke:#8ca9fd;stroke-width:4.04px;"/>
            <path d="M964.706,3071.37L115.294,3071.37" style="fill:none;stroke:#8ca9fd;stroke-width:4.04px;"/>
            <path d="M864,3840C838.775,3559.72 813.55,3279.44 788.324,2999.16" style="fill:none;stroke:#8ca9fd;stroke-width:4.04px;"/>
            <path d="M975.909,3146.06C685.303,3146.06 394.697,3146.06 104.091,3146.06" style="fill:none;stroke:#8ca9fd;stroke-width:4.04px;"/>
            <path d="M648,3840C639.592,3559.72 631.183,3279.44 622.775,2999.16" style="fill:none;stroke:#8ca9fd;stroke-width:4.04px;"/>
            <path d="M999.467,3303.11C693.156,3303.11 386.844,3303.11 80.533,3303.11" style="fill:none;stroke:#8ca9fd;stroke-width:4.04px;"/>
            <path d="M756,3840C739.183,3559.72 722.366,3279.44 705.55,2999.16" style="fill:none;stroke:#8ca9fd;stroke-width:4.04px;"/>
            <path d="M987.493,3223.29C689.164,3223.29 390.836,3223.29 92.507,3223.29" style="fill:none;stroke:#8ca9fd;stroke-width:4.04px;"/>
            <path d="M540,3840L540,2999.16" style="fill:none;stroke:#8ca9fd;stroke-width:4.04px;"/>
            <path d="M1011.84,3385.59C697.28,3385.59 382.72,3385.59 68.161,3385.59" style="fill:none;stroke:#8ca9fd;stroke-width:4.04px;"/>
            <path d="M432,3840C440.408,3559.72 448.817,3279.44 457.225,2999.16" style="fill:none;stroke:#8ca9fd;stroke-width:4.04px;"/>
            <path d="M1024.62,3470.8C701.54,3470.8 378.46,3470.8 55.381,3470.8" style="fill:none;stroke:#8ca9fd;stroke-width:4.04px;"/>
            <path d="M324,3840C340.817,3559.72 357.634,3279.44 374.45,2999.16" style="fill:none;stroke:#8ca9fd;stroke-width:4.04px;"/>
            <path d="M1037.82,3558.78L42.183,3558.78" style="fill:none;stroke:#8ca9fd;stroke-width:4.04px;"/>
            <path d="M216,3840C241.225,3559.72 266.45,3279.44 291.676,2999.16" style="fill:none;stroke:#8ca9fd;stroke-width:4.04px;"/>
            <path d="M1051.44,3649.6C710.48,3649.6 369.52,3649.6 28.56,3649.6" style="fill:none;stroke:#8ca9fd;stroke-width:4.04px;"/>
            <path d="M108,3840C141.634,3559.72 175.267,3279.44 208.901,2999.16" style="fill:none;stroke:#8ca9fd;stroke-width:4.04px;"/>
            <path d="M1065.5,3743.32C715.166,3743.32 364.834,3743.32 14.502,3743.32" style="fill:none;stroke:#8ca9fd;stroke-width:4.04px;"/>
            <path d="M953.874,2999.16L126.126,2999.16" style="fill:none;stroke:#8ca9fd;stroke-width:4.04px;"/>
            <path d="M1080,3840C720,3840 360,3840 0,3840" style="fill:none;stroke:#8ca9fd;stroke-width:4.04px;"/>
        </g>
    </g>
    <g>
        <g>
            <path d="M208.901,840.839C232.867,1040.56 256.834,1240.28 280.8,1440" style="fill:none;stroke:#8ca9fd;stroke-width:4.04px;"/>
            <path d="M-0,0C72,480 144,960 216,1440" style="fill:none;stroke:#8ca9fd;stroke-width:4.04px;"/>
            <path d="M1080,0C1008,480 936,960 864,1440" style="fill:none;stroke:#8ca9fd;stroke-width:4.04px;"/>
            <path d="M208.386,1389.24C429.462,1389.24 650.538,1389.24 871.614,1389.24" style="fill:none;stroke:#8ca9fd;stroke-width:4.04px;"/>
            <path d="M216,1440C432,1440 648,1440 864,1440" style="fill:none;stroke:#8ca9fd;stroke-width:4.04px;"/>
            <path d="M291.676,840.839C309.65,1040.56 327.625,1240.28 345.6,1440" style="fill:none;stroke:#8ca9fd;stroke-width:4.04px;"/>
            <path d="M200.49,1336.6C426.83,1336.6 653.17,1336.6 879.51,1336.6" style="fill:none;stroke:#8ca9fd;stroke-width:4.04px;"/>
            <path d="M457.225,840.839C463.217,1040.56 469.208,1240.28 475.2,1440" style="fill:none;stroke:#8ca9fd;stroke-width:4.04px;"/>
            <path d="M183.821,1225.47L896.179,1225.47" style="fill:none;stroke:#8ca9fd;stroke-width:4.04px;"/>
            <path d="M374.45,840.839C386.434,1040.56 398.417,1240.28 410.4,1440" style="fill:none;stroke:#8ca9fd;stroke-width:4.04px;"/>
            <path d="M192.305,1282.03C424.102,1282.03 655.898,1282.03 887.695,1282.03" style="fill:none;stroke:#8ca9fd;stroke-width:4.04px;"/>
            <path d="M540,840.839L540,1440" style="fill:none;stroke:#8ca9fd;stroke-width:4.04px;"/>
            <path d="M175.028,1166.85L904.972,1166.85" style="fill:none;stroke:#8ca9fd;stroke-width:4.04px;"/>
            <path d="M622.775,840.839C616.783,1040.56 610.792,1240.28 604.8,1440" style="fill:none;stroke:#8ca9fd;stroke-width:4.04px;"/>
            <path d="M165.918,1106.12C415.306,1106.12 664.694,1106.12 914.082,1106.12" style="fill:none;stroke:#8ca9fd;stroke-width:4.04px;"/>
            <path d="M705.55,840.839C693.566,1040.56 681.583,1240.28 669.6,1440" style="fill:none;stroke:#8ca9fd;stroke-width:4.04px;"/>
            <path d="M156.482,1043.21L923.518,1043.21" style="fill:none;stroke:#8ca9fd;stroke-width:4.04px;"/>
            <path d="M788.324,840.839C770.35,1040.56 752.375,1240.28 734.4,1440" style="fill:none;stroke:#8ca9fd;stroke-width:4.04px;"/>
            <path d="M146.711,978.072C408.904,978.072 671.096,978.072 933.289,978.072" style="fill:none;stroke:#8ca9fd;stroke-width:4.04px;"/>
            <path d="M871.099,840.839C847.133,1040.56 823.166,1240.28 799.2,1440" style="fill:none;stroke:#8ca9fd;stroke-width:4.04px;"/>
            <path d="M136.595,910.634C405.532,910.634 674.468,910.634 943.405,910.634" style="fill:none;stroke:#8ca9fd;stroke-width:4.04px;"/>
            <path d="M108,0C141.634,280.28 175.267,560.559 208.901,840.839" style="fill:none;stroke:#8ca9fd;stroke-width:4.04px;"/>
            <path d="M115.294,768.628L964.706,768.628" style="fill:none;stroke:#8ca9fd;stroke-width:4.04px;"/>
            <path d="M216,0C241.225,280.28 266.45,560.559 291.676,840.839" style="fill:none;stroke:#8ca9fd;stroke-width:4.04px;"/>
            <path d="M104.091,693.939C394.697,693.939 685.303,693.939 975.909,693.939" style="fill:none;stroke:#8ca9fd;stroke-width:4.04px;"/>
            <path d="M432,0C440.408,280.28 448.817,560.559 457.225,840.839" style="fill:none;stroke:#8ca9fd;stroke-width:4.04px;"/>
            <path d="M80.533,536.888C386.844,536.888 693.156,536.888 999.467,536.888" style="fill:none;stroke:#8ca9fd;stroke-width:4.04px;"/>
            <path d="M324,0C340.817,280.28 357.634,560.559 374.45,840.839" style="fill:none;stroke:#8ca9fd;stroke-width:4.04px;"/>
            <path d="M92.507,616.713C390.836,616.713 689.164,616.713 987.493,616.713" style="fill:none;stroke:#8ca9fd;stroke-width:4.04px;"/>
            <path d="M540,0L540,840.839" style="fill:none;stroke:#8ca9fd;stroke-width:4.04px;"/>
            <path d="M68.161,454.406C382.72,454.406 697.28,454.406 1011.84,454.406" style="fill:none;stroke:#8ca9fd;stroke-width:4.04px;"/>
            <path d="M648,0C639.592,280.28 631.183,560.559 622.775,840.839" style="fill:none;stroke:#8ca9fd;stroke-width:4.04px;"/>
            <path d="M55.381,369.204C378.46,369.204 701.54,369.204 1024.62,369.204" style="fill:none;stroke:#8ca9fd;stroke-width:4.04px;"/>
            <path d="M756,0C739.183,280.28 722.366,560.559 705.55,840.839" style="fill:none;stroke:#8ca9fd;stroke-width:4.04px;"/>
            <path d="M42.183,281.223L1037.82,281.223" style="fill:none;stroke:#8ca9fd;stroke-width:4.04px;"/>
            <path d="M864,0C838.775,280.28 813.55,560.559 788.324,840.839" style="fill:none;stroke:#8ca9fd;stroke-width:4.04px;"/>
            <path d="M28.56,190.402L1051.44,190.402" style="fill:none;stroke:#8ca9fd;stroke-width:4.04px;"/>
            <path d="M972,0C938.366,280.28 904.733,560.559 871.099,840.839" style="fill:none;stroke:#8ca9fd;stroke-width:4.04px;"/>
            <path d="M14.502,96.681C364.834,96.681 715.166,96.681 1065.5,96.681" style="fill:none;stroke:#8ca9fd;stroke-width:4.04px;"/>
            <path d="M126.126,840.839L953.874,840.839" style="fill:none;stroke:#8ca9fd;stroke-width:4.04px;"/>
            <path d="M0,0C360,0 720,0 1080,0" style="fill:none;stroke:#8ca9fd;stroke-width:4.04px;"/>
        </g>
    </g>
    <g opacity="0.75">
        <g>
            <path d="M-256.388,667.803C-140.953,661.007 -25.493,657.183 89.965,654.506C226.369,651.344 362.779,650 499.189,650C635.598,650 772.008,651.344 908.412,654.506C1023.87,657.183 1139.33,661.007 1254.77,667.803C1294.04,682.937 1333.27,699.044 1372.38,717.08C1404.55,731.92 1436.66,747.967 1468.52,766.965C822.3,766.49 176.077,766.49 -470.145,766.965C-438.283,747.967 -406.172,731.92 -373.999,717.08C-334.896,699.044 -295.666,682.937 -256.388,667.803ZM1254.77,3172.2C1139.33,3178.99 1023.87,3182.82 908.412,3185.49C772.008,3188.66 635.598,3190 499.189,3190C362.779,3190 226.369,3188.66 89.965,3185.49C-25.493,3182.82 -140.953,3178.99 -256.388,3172.2C-295.666,3157.06 -334.896,3140.96 -373.999,3122.92C-406.172,3108.08 -438.283,3092.03 -470.145,3073.03C176.077,3073.51 822.3,3073.51 1468.52,3073.03C1436.66,3092.03 1404.55,3108.08 1372.38,3122.92C1333.27,3140.96 1294.04,3157.06 1254.77,3172.2Z" style="fill:#8ca9fd;"/>
            <path d="M-551.034,826.726C-197.468,825.974 156.098,826.292 509.664,826.294C856.246,826.296 1202.83,825.989 1549.41,826.726C1559.81,836.947 1570.36,848.381 1579.59,864.912C1584.48,873.669 1588.73,884.781 1593.12,895.17C1599.92,911.266 1606.72,927.376 1613.51,943.5C1632.36,988.279 1651.18,1033.16 1669.92,1078.29C1651.98,1077.02 1634.04,1075.86 1616.09,1074.74C1607.48,1074.21 1598.86,1073.46 1590.25,1073.17C1573.57,1072.6 1556.87,1072.92 1540.19,1072.85C1509.14,1072.72 1478.09,1072.64 1447.04,1072.58C1367.7,1072.4 1288.35,1072.3 1209.01,1072.22C968.91,1071.97 728.811,1071.91 488.712,1071.91C250.161,1071.91 11.61,1071.98 -226.941,1072.24C-300.849,1072.32 -374.756,1072.41 -448.664,1072.58C-479.713,1072.64 -510.762,1072.72 -541.812,1072.85C-558.495,1072.92 -575.189,1072.6 -591.872,1073.17C-600.486,1073.46 -609.101,1074.21 -617.713,1074.74C-635.658,1075.86 -653.604,1077.02 -671.548,1078.29C-652.808,1033.16 -633.987,988.279 -615.129,943.5C-608.339,927.376 -601.544,911.266 -594.744,895.17C-590.354,884.781 -586.105,873.669 -581.215,864.912C-571.984,848.381 -561.435,836.947 -551.034,826.726ZM1549.41,3013.27C1202.83,3014.01 856.246,3013.7 509.664,3013.71C156.098,3013.71 -197.468,3014.03 -551.034,3013.27C-561.435,3003.05 -571.984,2991.62 -581.215,2975.09C-586.105,2966.33 -590.354,2955.22 -594.744,2944.83C-601.544,2928.73 -608.339,2912.62 -615.129,2896.5C-633.987,2851.72 -652.808,2806.84 -671.548,2761.71C-653.604,2762.98 -635.658,2764.14 -617.713,2765.26C-609.101,2765.79 -600.486,2766.54 -591.872,2766.83C-575.189,2767.4 -558.495,2767.08 -541.812,2767.15C-510.762,2767.28 -479.713,2767.36 -448.664,2767.42C-374.756,2767.59 -300.849,2767.68 -226.941,2767.76C11.61,2768.02 250.161,2768.09 488.712,2768.09C728.811,2768.09 968.91,2768.03 1209.01,2767.78C1288.35,2767.7 1367.7,2767.6 1447.04,2767.42C1478.09,2767.36 1509.14,2767.28 1540.19,2767.15C1556.87,2767.08 1573.57,2767.4 1590.25,2766.83C1598.86,2766.54 1607.48,2765.79 1616.09,2765.26C1634.04,2764.14 1651.98,2762.98 1669.92,2761.71C1651.18,2806.84 1632.36,2851.72 1613.51,2896.5C1606.72,2912.62 1599.92,2928.73 1593.12,2944.83C1588.73,2955.22 1584.48,2966.33 1579.59,2975.09C1570.36,2991.62 1559.81,3003.05 1549.41,3013.27Z" style="fill:#f3d751;"/>
            <path d="M-698.55,1143.67C-675.434,1141.82 -652.315,1140.24 -629.194,1138.76C-617.025,1137.98 -604.849,1136.85 -592.677,1136.54C-575.272,1136.1 -557.862,1136.26 -540.457,1136.18C-508.734,1136.04 -477.011,1135.95 -445.288,1135.87C-370.426,1135.69 -295.563,1135.58 -220.701,1135.49C19.262,1135.2 259.226,1135.12 499.189,1135.12C739.152,1135.12 979.115,1135.2 1219.08,1135.49C1293.94,1135.58 1368.8,1135.69 1443.66,1135.87C1475.39,1135.95 1507.11,1136.04 1538.83,1136.18C1556.24,1136.26 1573.65,1136.1 1591.05,1136.54C1603.23,1136.85 1615.4,1137.98 1627.57,1138.76C1650.69,1140.24 1673.81,1141.82 1696.93,1143.67C1724.9,1211.83 1752.62,1280.75 1779.59,1351.71C1788.68,1375.65 1797.69,1399.83 1806.58,1424.33C1810.67,1435.63 1814.93,1446.73 1818.82,1458.53C1822.2,1468.77 1825.26,1479.85 1828.43,1490.55C1835.2,1513.44 1841.87,1536.56 1848.43,1559.88C1783.5,1548.22 1718.36,1545.09 1653.3,1542.35C1637.3,1541.67 1621.3,1540.95 1605.3,1540.49C1567.72,1539.41 1530.13,1539.87 1492.55,1539.74C1433,1539.52 1373.45,1539.38 1313.9,1539.27C1038.79,1538.75 763.68,1538.66 488.569,1538.66C220.538,1538.67 -47.493,1538.76 -315.524,1539.27C-375.073,1539.38 -434.623,1539.52 -494.173,1539.74C-531.754,1539.87 -569.347,1539.41 -606.926,1540.49C-622.926,1540.95 -638.926,1541.67 -654.924,1542.35C-719.981,1545.09 -785.121,1548.22 -850.054,1559.88C-843.49,1536.56 -836.823,1513.44 -830.051,1490.55C-826.887,1479.85 -823.818,1468.77 -820.442,1458.53C-816.551,1446.73 -812.296,1435.63 -808.198,1424.33C-799.313,1399.83 -790.305,1375.65 -781.208,1351.71C-754.245,1280.75 -726.523,1211.83 -698.55,1143.67ZM1696.93,2696.33C1673.81,2698.18 1650.69,2699.76 1627.57,2701.24C1615.4,2702.02 1603.23,2703.15 1591.05,2703.46C1573.65,2703.9 1556.24,2703.74 1538.83,2703.82C1507.11,2703.96 1475.39,2704.05 1443.66,2704.13C1368.8,2704.31 1293.94,2704.42 1219.08,2704.51C979.115,2704.8 739.152,2704.88 499.189,2704.88C259.226,2704.88 19.262,2704.8 -220.701,2704.51C-295.563,2704.42 -370.426,2704.31 -445.288,2704.13C-477.011,2704.05 -508.734,2703.96 -540.457,2703.82C-557.862,2703.74 -575.272,2703.9 -592.677,2703.46C-604.849,2703.15 -617.025,2702.02 -629.194,2701.24C-652.315,2699.76 -675.434,2698.18 -698.55,2696.33C-726.523,2628.17 -754.245,2559.26 -781.208,2488.29C-790.305,2464.35 -799.313,2440.17 -808.198,2415.67C-812.296,2404.37 -816.551,2393.27 -820.442,2381.47C-823.818,2371.23 -826.887,2360.15 -830.051,2349.45C-836.823,2326.55 -843.49,2303.44 -850.054,2280.12C-785.121,2291.78 -719.981,2294.91 -654.924,2297.65C-638.926,2298.33 -622.926,2299.05 -606.926,2299.51C-569.347,2300.59 -531.754,2300.13 -494.173,2300.26C-434.623,2300.48 -375.073,2300.62 -315.524,2300.73C-47.493,2301.24 220.538,2301.33 488.569,2301.34C763.68,2301.34 1038.79,2301.25 1313.9,2300.73C1373.45,2300.62 1433,2300.48 1492.55,2300.26C1530.13,2300.13 1567.72,2300.59 1605.3,2299.51C1621.3,2299.05 1637.3,2298.33 1653.3,2297.65C1718.36,2294.91 1783.5,2291.78 1848.43,2280.12C1841.87,2303.44 1835.2,2326.55 1828.43,2349.45C1825.26,2360.15 1822.2,2371.23 1818.82,2381.47C1814.93,2393.27 1810.67,2404.37 1806.58,2415.67C1797.69,2440.17 1788.68,2464.35 1779.59,2488.29C1752.62,2559.26 1724.9,2628.17 1696.93,2696.33Z" style="fill:#fa8057;"/>
            <path d="M-870.619,1634.85C-839.55,1629.38 -808.429,1626.09 -777.308,1623.61C-740.348,1620.65 -703.374,1618.92 -666.402,1617.52C-647.003,1616.79 -627.603,1615.99 -608.203,1615.55C-570.236,1614.69 -532.261,1615.07 -494.293,1614.95C-439.565,1614.8 -384.837,1614.69 -330.11,1614.61C-57.213,1614.18 215.683,1614.11 488.579,1614.1C768.548,1614.1 1048.52,1614.17 1328.49,1614.61C1383.21,1614.69 1437.94,1614.8 1492.67,1614.95C1530.64,1615.07 1568.61,1614.69 1606.58,1615.55C1625.98,1615.99 1645.38,1616.79 1664.78,1617.52C1701.75,1618.92 1738.73,1620.65 1775.68,1623.61C1806.81,1626.09 1837.93,1629.38 1869,1634.85C1893.66,1727.14 1916.79,1822.32 1938.28,1920C1916.79,2017.68 1893.66,2112.86 1869,2205.15C1837.93,2210.62 1806.81,2213.91 1775.68,2216.39C1738.73,2219.35 1701.75,2221.08 1664.78,2222.48C1645.38,2223.21 1625.98,2224.01 1606.58,2224.45C1568.61,2225.31 1530.64,2224.93 1492.67,2225.05C1437.94,2225.2 1383.21,2225.31 1328.49,2225.39C1055.59,2225.82 782.694,2225.89 509.798,2225.9C229.829,2225.9 -50.14,2225.83 -330.11,2225.39C-384.837,2225.31 -439.565,2225.2 -494.293,2225.05C-532.261,2224.93 -570.236,2225.31 -608.203,2224.45C-627.603,2224.01 -647.003,2223.21 -666.402,2222.48C-703.374,2221.08 -740.348,2219.35 -777.308,2216.39C-808.429,2213.91 -839.55,2210.62 -870.619,2205.15C-895.282,2112.86 -918.409,2017.68 -939.9,1920C-918.409,1822.32 -895.282,1727.14 -870.619,1634.85Z" style="fill:#e754b0;fill-opacity:0.75;"/>
        </g>
    </g>
</svg>
