<?xml version="1.0" encoding="UTF-8" standalone="no"?>
<!DOCTYPE svg PUBLIC "-//W3C//DTD SVG 1.1//EN" "http://www.w3.org/Graphics/SVG/1.1/DTD/svg11.dtd">
<svg width="100%" height="100%" viewBox="0 0 890 147" version="1.1" xmlns="http://www.w3.org/2000/svg" xmlns:xlink="http://www.w3.org/1999/xlink" xml:space="preserve" xmlns:serif="http://www.serif.com/" style="fill-rule:evenodd;clip-rule:evenodd;stroke-linecap:round;stroke-miterlimit:1.5;">
    <g transform="matrix(0.436348,0,0,0.436348,-184.43,26.7844)">
        <g transform="matrix(288,0,0,288,2473.51,187.199)">
        </g>
        <text x="421.515px" y="187.199px" style="font-family:'Montserrat-Medium', 'Montserrat';font-weight:500;font-size:288px;">Time  <tspan x="1302.8px 1376.52px 1450.25px 1509px " y="187.199px 187.199px 187.199px 187.199px ">   a</tspan>psule</text>
    </g>
    <g transform="matrix(1,0,0,1,-516.769,-466.908)">
        <g opacity="0.1">
            <g transform="matrix(1,0,0,1,0.396752,-6.84547)">
                <g transform="matrix(0.944687,0,0,0.944687,53.1278,27.6674)">
                    <path d="M919.608,496.638L925.495,508.412L913.721,508.412L919.608,496.638Z"/>
                </g>
                <g transform="matrix(1,0,0,1,0.957525,-1.25307)">
                    <rect x="915.35" y="509.211" width="11.123" height="38.888"/>
                </g>
            </g>
            <g transform="matrix(-0.5,0.866025,-0.632661,-0.365267,1729.17,-58.6176)">
                <g transform="matrix(0.944687,0,0,0.944687,53.1278,27.6674)">
                    <path d="M919.608,496.638L925.495,508.412L913.721,508.412L919.608,496.638Z"/>
                </g>
                <g transform="matrix(1,0,0,1,0.957525,-1.25307)">
                    <rect x="915.35" y="509.211" width="11.123" height="38.888"/>
                </g>
            </g>
            <path d="M916.704,540L919.485,544.817L922.266,540L916.704,540Z"/>
        </g>
    </g>
    <g transform="matrix(1,0,0,1,-503.595,-445.693)">
        <circle cx="909.092" cy="518.786" r="62.276" style="fill:none;stroke:black;stroke-opacity:0.1;stroke-width:12px;"/>
    </g>
    <g transform="matrix(1,0,0,1,-516.769,-466.908)">
        <g transform="matrix(1,0,0,1,13.1737,21.2142)">
            <path d="M957.579,557.851C946.16,572.003 928.675,581.062 909.092,581.062C874.721,581.062 846.817,553.157 846.817,518.786C846.817,484.415 874.721,456.51 909.092,456.51C924.838,456.51 939.226,462.366 950.196,472.017" style="fill:none;stroke:black;stroke-width:12px;stroke-linecap:butt;"/>
        </g>
        <g transform="matrix(-0.779528,0.626367,-0.626367,-0.779528,2018.08,314.82)">
            <path d="M933.793,499.826L945.319,522.879L922.266,522.879L933.793,499.826Z"/>
        </g>
    </g>
</svg>
