<?xml version="1.0" encoding="UTF-8" standalone="no"?>
<!DOCTYPE svg PUBLIC "-//W3C//DTD SVG 1.1//EN" "http://www.w3.org/Graphics/SVG/1.1/DTD/svg11.dtd">
<svg width="100%" height="100%" viewBox="0 0 890 147" version="1.1" xmlns="http://www.w3.org/2000/svg" xmlns:xlink="http://www.w3.org/1999/xlink" xml:space="preserve" xmlns:serif="http://www.serif.com/" style="fill-rule:evenodd;clip-rule:evenodd;stroke-linecap:round;stroke-miterlimit:1.5;">
    <path d="M30.16,108.468L30.16,31.434L-0,31.434L-0,20.5L72.762,20.5L72.762,31.434L42.601,31.434L42.601,108.468L30.16,108.468Z" style="fill-rule:nonzero;"/>
    <path d="M84.7,108.468L84.7,41.864L96.764,41.864L96.764,108.468L84.7,108.468ZM90.732,29.046C88.387,29.046 86.439,28.292 84.889,26.784C83.339,25.276 82.564,23.433 82.564,21.254C82.564,18.992 83.339,17.107 84.889,15.599C86.439,14.091 88.387,13.337 90.732,13.337C93.078,13.337 95.026,14.07 96.576,15.537C98.126,17.003 98.901,18.825 98.901,21.003C98.901,23.265 98.147,25.171 96.639,26.721C95.131,28.271 93.162,29.046 90.732,29.046Z" style="fill-rule:nonzero;"/>
    <path d="M203.08,41.236C208.441,41.236 213.175,42.283 217.28,44.377C221.385,46.472 224.59,49.655 226.894,53.928C229.198,58.201 230.35,63.605 230.35,70.139L230.35,108.468L218.285,108.468L218.285,71.522C218.285,65.071 216.777,60.212 213.761,56.944C210.745,53.677 206.515,52.043 201.069,52.043C197.048,52.043 193.529,52.881 190.513,54.556C187.497,56.232 185.172,58.703 183.538,61.971C181.905,65.238 181.088,69.301 181.088,74.161L181.088,108.468L169.024,108.468L169.024,71.522C169.024,65.071 167.537,60.212 164.562,56.944C161.588,53.677 157.336,52.043 151.807,52.043C147.869,52.043 144.393,52.881 141.377,54.556C138.361,56.232 136.015,58.703 134.339,61.971C132.664,65.238 131.826,69.301 131.826,74.161L131.826,108.468L119.762,108.468L119.762,41.864L131.323,41.864L131.323,59.583L129.438,55.059C131.533,50.703 134.758,47.31 139.115,44.88C143.471,42.45 148.54,41.236 154.32,41.236C160.688,41.236 166.175,42.806 170.783,45.948C175.391,49.09 178.407,53.844 179.831,60.212L174.93,58.201C176.941,53.09 180.459,48.985 185.486,45.885C190.513,42.786 196.377,41.236 203.08,41.236Z" style="fill-rule:nonzero;"/>
    <path d="M282.251,109.222C275.129,109.222 268.867,107.756 263.463,104.824C258.059,101.891 253.87,97.87 250.896,92.76C247.922,87.649 246.435,81.785 246.435,75.166C246.435,68.547 247.88,62.683 250.771,57.572C253.661,52.462 257.641,48.462 262.709,45.571C267.778,42.681 273.496,41.236 279.863,41.236C286.314,41.236 292.011,42.66 296.954,45.508C301.897,48.357 305.771,52.357 308.578,57.51C311.385,62.662 312.788,68.673 312.788,75.543C312.788,76.046 312.767,76.632 312.725,77.302C312.683,77.973 312.62,78.601 312.537,79.187L255.86,79.187L255.86,70.516L306.253,70.516L301.352,73.532C301.436,69.26 300.556,65.448 298.713,62.097C296.87,58.745 294.336,56.127 291.11,54.242C287.885,52.357 284.136,51.415 279.863,51.415C275.674,51.415 271.946,52.357 268.678,54.242C265.411,56.127 262.856,58.766 261.013,62.159C259.169,65.552 258.248,69.427 258.248,73.784L258.248,75.794C258.248,80.235 259.274,84.193 261.327,87.67C263.379,91.147 266.249,93.849 269.935,95.776C273.621,97.702 277.852,98.666 282.628,98.666C286.565,98.666 290.147,97.996 293.372,96.655C296.598,95.315 299.425,93.304 301.855,90.623L308.515,98.415C305.499,101.933 301.75,104.614 297.268,106.457C292.786,108.3 287.78,109.222 282.251,109.222Z" style="fill-rule:nonzero;"/>
    <path d="M526.801,108.468L526.801,94.393L526.172,91.754L526.172,67.752C526.172,62.641 524.685,58.683 521.711,55.876C518.737,53.069 514.276,51.666 508.327,51.666C504.39,51.666 500.536,52.315 496.766,53.614C492.996,54.913 489.812,56.651 487.215,58.829L482.188,49.781C485.623,47.016 489.749,44.901 494.567,43.435C499.384,41.969 504.432,41.236 509.71,41.236C518.842,41.236 525.879,43.456 530.822,47.896C535.765,52.336 538.236,59.122 538.236,68.254L538.236,108.468L526.801,108.468ZM504.934,109.222C499.991,109.222 495.656,108.384 491.928,106.709C488.2,105.033 485.33,102.708 483.319,99.734C481.309,96.76 480.303,93.388 480.303,89.618C480.303,86.015 481.162,82.748 482.88,79.816C484.597,76.883 487.404,74.538 491.299,72.778C495.195,71.019 500.452,70.139 507.071,70.139L528.183,70.139L528.183,78.81L507.573,78.81C501.541,78.81 497.478,79.816 495.384,81.826C493.289,83.837 492.242,86.267 492.242,89.115C492.242,92.383 493.54,95.001 496.138,96.969C498.735,98.938 502.337,99.923 506.945,99.923C511.469,99.923 515.428,98.917 518.821,96.907C522.214,94.896 524.664,91.964 526.172,88.11L528.56,96.404C526.968,100.342 524.162,103.462 520.14,105.766C516.119,108.07 511.05,109.222 504.934,109.222Z" style="fill-rule:nonzero;"/>
    <path d="M595.918,109.222C590.389,109.222 585.341,107.944 580.775,105.389C576.209,102.834 572.565,99.043 569.842,94.016C567.119,88.99 565.758,82.706 565.758,75.166C565.758,67.626 567.077,61.343 569.716,56.316C572.355,51.289 575.958,47.519 580.524,45.006C585.09,42.492 590.221,41.236 595.918,41.236C602.453,41.236 608.234,42.66 613.26,45.508C618.287,48.357 622.266,52.315 625.199,57.384C628.131,62.453 629.597,68.38 629.597,75.166C629.597,81.952 628.131,87.9 625.199,93.011C622.266,98.121 618.287,102.101 613.26,104.949C608.234,107.798 602.453,109.222 595.918,109.222ZM560.605,132.848L560.605,41.864L572.167,41.864L572.167,59.835L571.413,75.292L572.669,90.749L572.669,132.848L560.605,132.848ZM594.913,98.666C599.185,98.666 603.018,97.702 606.411,95.776C609.804,93.849 612.485,91.105 614.454,87.544C616.423,83.984 617.407,79.858 617.407,75.166C617.407,70.391 616.423,66.265 614.454,62.788C612.485,59.311 609.804,56.609 606.411,54.682C603.018,52.755 599.185,51.792 594.913,51.792C590.724,51.792 586.933,52.755 583.54,54.682C580.147,56.609 577.466,59.311 575.497,62.788C573.528,66.265 572.544,70.391 572.544,75.166C572.544,79.858 573.528,83.984 575.497,87.544C577.466,91.105 580.147,93.849 583.54,95.776C586.933,97.702 590.724,98.666 594.913,98.666Z" style="fill-rule:nonzero;"/>
    <path d="M665.413,109.222C659.883,109.222 654.626,108.468 649.641,106.96C644.656,105.452 640.74,103.609 637.891,101.431L642.918,91.88C645.766,93.807 649.285,95.44 653.474,96.781C657.663,98.121 661.936,98.792 666.292,98.792C671.905,98.792 675.948,97.996 678.419,96.404C680.891,94.812 682.126,92.592 682.126,89.744C682.126,87.649 681.372,86.015 679.864,84.842C678.356,83.67 676.367,82.79 673.895,82.203C671.424,81.617 668.68,81.093 665.664,80.633C662.648,80.172 659.632,79.585 656.616,78.873C653.6,78.161 650.835,77.156 648.322,75.857C645.808,74.559 643.798,72.757 642.29,70.453C640.782,68.15 640.028,65.071 640.028,61.217C640.028,57.195 641.159,53.677 643.421,50.661C645.683,47.645 648.887,45.32 653.034,43.686C657.181,42.052 662.103,41.236 667.8,41.236C672.157,41.236 676.576,41.759 681.058,42.806C685.54,43.854 689.206,45.341 692.054,47.268L686.902,56.818C683.886,54.808 680.744,53.425 677.477,52.671C674.209,51.917 670.942,51.54 667.675,51.54C662.397,51.54 658.459,52.399 655.862,54.117C653.265,55.834 651.966,58.033 651.966,60.714C651.966,62.976 652.741,64.715 654.291,65.929C655.841,67.144 657.852,68.087 660.323,68.757C662.794,69.427 665.538,69.993 668.554,70.453C671.57,70.914 674.586,71.501 677.602,72.213C680.618,72.925 683.362,73.909 685.834,75.166C688.305,76.423 690.316,78.182 691.866,80.444C693.416,82.706 694.191,85.722 694.191,89.492C694.191,93.514 693.018,96.99 690.672,99.923C688.326,102.855 685.017,105.138 680.744,106.772C676.471,108.405 671.361,109.222 665.413,109.222Z" style="fill-rule:nonzero;"/>
    <path d="M737.295,109.222C731.598,109.222 726.592,108.175 722.277,106.08C717.963,103.986 714.612,100.781 712.224,96.467C709.836,92.152 708.642,86.727 708.642,80.193L708.642,41.864L720.706,41.864L720.706,78.81C720.706,85.345 722.277,90.246 725.419,93.514C728.561,96.781 732.98,98.415 738.677,98.415C742.866,98.415 746.51,97.556 749.61,95.838C752.71,94.121 755.098,91.608 756.773,88.298C758.449,84.989 759.287,80.989 759.287,76.297L759.287,41.864L771.351,41.864L771.351,108.468L759.915,108.468L759.915,90.498L761.8,95.273C759.622,99.713 756.354,103.148 751.998,105.578C747.641,108.007 742.74,109.222 737.295,109.222Z" style="fill-rule:nonzero;"/>
    <rect x="794.348" y="15.222" width="12.064" height="93.246" style="fill-rule:nonzero;"/>
    <path d="M859.067,109.222C851.946,109.222 845.683,107.756 840.28,104.824C834.876,101.891 830.687,97.87 827.713,92.76C824.739,87.649 823.252,81.785 823.252,75.166C823.252,68.547 824.697,62.683 827.587,57.572C830.478,52.462 834.457,48.462 839.526,45.571C844.594,42.681 850.312,41.236 856.679,41.236C863.13,41.236 868.827,42.66 873.77,45.508C878.713,48.357 882.588,52.357 885.395,57.51C888.201,62.662 889.604,68.673 889.604,75.543C889.604,76.046 889.583,76.632 889.542,77.302C889.5,77.973 889.437,78.601 889.353,79.187L832.677,79.187L832.677,70.516L883.07,70.516L878.169,73.532C878.252,69.26 877.373,65.448 875.53,62.097C873.686,58.745 871.152,56.127 867.927,54.242C864.701,52.357 860.952,51.415 856.679,51.415C852.49,51.415 848.762,52.357 845.495,54.242C842.228,56.127 839.672,58.766 837.829,62.159C835.986,65.552 835.064,69.427 835.064,73.784L835.064,75.794C835.064,80.235 836.091,84.193 838.143,87.67C840.196,91.147 843.065,93.849 846.752,95.776C850.438,97.702 854.669,98.666 859.444,98.666C863.382,98.666 866.963,97.996 870.189,96.655C873.414,95.315 876.242,93.304 878.671,90.623L885.332,98.415C882.316,101.933 878.567,104.614 874.084,106.457C869.602,108.3 864.596,109.222 859.067,109.222Z" style="fill-rule:nonzero;"/>
    <g opacity="0.1">
        <g>
            <path d="M405.497,23.082L411.059,34.205L399.936,34.205L405.497,23.082Z"/>
            <rect x="399.936" y="34.205" width="11.123" height="38.888"/>
        </g>
        <g>
            <path d="M437.137,91.36L427.319,92.113L432.881,82.48L437.137,91.36Z"/>
            <path d="M427.319,92.113L402.717,77.909L408.278,68.276L432.881,82.48L427.319,92.113Z"/>
        </g>
        <path d="M399.936,73.092L402.717,77.909L405.497,73.092L399.936,73.092Z"/>
    </g>
    <circle cx="405.497" cy="73.092" r="62.276" style="fill:none;stroke:#000;stroke-opacity:0.1;stroke-width:12px;"/>
    <g>
        <path d="M453.984,112.158C442.565,126.31 425.081,135.368 405.497,135.368C371.126,135.368 343.222,107.463 343.222,73.092C343.222,38.722 371.126,10.817 405.497,10.817C421.243,10.817 435.631,16.673 446.601,26.323" style="fill:none;stroke:#000;stroke-width:12px;stroke-linecap:butt;"/>
        <path d="M460.317,43.181L436.892,32.43L454.863,17.991L460.317,43.181Z"/>
    </g>
</svg>
